<mxfile host="app.diagrams.net" agent="Mozilla/5.0 (Windows NT 10.0; Win64; x64) AppleWebKit/537.36 (KHTML, like Gecko) Chrome/128.0.0.0 Safari/537.36" version="24.7.14" pages="2">
  <diagram name="PÃ¡gina-1" id="gq1ESVZaRrUepFsSYZeg">
    <mxGraphModel dx="1520" dy="826" grid="1" gridSize="10" guides="1" tooltips="1" connect="1" arrows="1" fold="1" page="0" pageScale="1" pageWidth="827" pageHeight="1169" math="0" shadow="0">
      <root>
        <mxCell id="0" />
        <mxCell id="1" parent="0" />
        <mxCell id="hOf3AfDxxuHpBkmNz-YH-98" style="edgeStyle=none;curved=1;rounded=0;orthogonalLoop=1;jettySize=auto;html=1;entryX=0;entryY=1;entryDx=0;entryDy=0;fontSize=12;startSize=8;endSize=8;" parent="1" source="hOf3AfDxxuHpBkmNz-YH-1" target="hOf3AfDxxuHpBkmNz-YH-96" edge="1">
          <mxGeometry relative="1" as="geometry" />
        </mxCell>
        <mxCell id="hOf3AfDxxuHpBkmNz-YH-99" style="edgeStyle=none;curved=1;rounded=0;orthogonalLoop=1;jettySize=auto;html=1;entryX=0;entryY=1;entryDx=0;entryDy=0;fontSize=12;startSize=8;endSize=8;" parent="1" source="hOf3AfDxxuHpBkmNz-YH-1" target="hOf3AfDxxuHpBkmNz-YH-97" edge="1">
          <mxGeometry relative="1" as="geometry" />
        </mxCell>
        <mxCell id="hOf3AfDxxuHpBkmNz-YH-1" value="Mesero" style="ellipse;whiteSpace=wrap;html=1;align=center;fontStyle=4;" parent="1" vertex="1">
          <mxGeometry x="360" y="1039" width="80" height="80" as="geometry" />
        </mxCell>
        <mxCell id="hOf3AfDxxuHpBkmNz-YH-88" style="edgeStyle=none;curved=1;rounded=0;orthogonalLoop=1;jettySize=auto;html=1;entryX=0;entryY=0.5;entryDx=0;entryDy=0;fontSize=12;startSize=8;endSize=8;" parent="1" source="hOf3AfDxxuHpBkmNz-YH-2" target="hOf3AfDxxuHpBkmNz-YH-80" edge="1">
          <mxGeometry relative="1" as="geometry" />
        </mxCell>
        <mxCell id="hOf3AfDxxuHpBkmNz-YH-90" style="edgeStyle=none;curved=1;rounded=0;orthogonalLoop=1;jettySize=auto;html=1;entryX=0;entryY=0.5;entryDx=0;entryDy=0;fontSize=12;startSize=8;endSize=8;" parent="1" source="hOf3AfDxxuHpBkmNz-YH-2" target="hOf3AfDxxuHpBkmNz-YH-82" edge="1">
          <mxGeometry relative="1" as="geometry" />
        </mxCell>
        <mxCell id="hOf3AfDxxuHpBkmNz-YH-91" style="edgeStyle=none;curved=1;rounded=0;orthogonalLoop=1;jettySize=auto;html=1;entryX=0;entryY=0.5;entryDx=0;entryDy=0;fontSize=12;startSize=8;endSize=8;" parent="1" source="hOf3AfDxxuHpBkmNz-YH-2" target="hOf3AfDxxuHpBkmNz-YH-83" edge="1">
          <mxGeometry relative="1" as="geometry" />
        </mxCell>
        <mxCell id="hOf3AfDxxuHpBkmNz-YH-92" style="edgeStyle=none;curved=1;rounded=0;orthogonalLoop=1;jettySize=auto;html=1;entryX=0;entryY=0.5;entryDx=0;entryDy=0;fontSize=12;startSize=8;endSize=8;" parent="1" source="hOf3AfDxxuHpBkmNz-YH-2" target="hOf3AfDxxuHpBkmNz-YH-84" edge="1">
          <mxGeometry relative="1" as="geometry" />
        </mxCell>
        <mxCell id="hOf3AfDxxuHpBkmNz-YH-93" style="edgeStyle=none;curved=1;rounded=0;orthogonalLoop=1;jettySize=auto;html=1;entryX=0;entryY=0.5;entryDx=0;entryDy=0;fontSize=12;startSize=8;endSize=8;" parent="1" source="hOf3AfDxxuHpBkmNz-YH-2" target="hOf3AfDxxuHpBkmNz-YH-85" edge="1">
          <mxGeometry relative="1" as="geometry" />
        </mxCell>
        <mxCell id="hOf3AfDxxuHpBkmNz-YH-94" style="edgeStyle=none;curved=1;rounded=0;orthogonalLoop=1;jettySize=auto;html=1;entryX=0;entryY=0;entryDx=0;entryDy=0;fontSize=12;startSize=8;endSize=8;" parent="1" source="hOf3AfDxxuHpBkmNz-YH-2" target="hOf3AfDxxuHpBkmNz-YH-86" edge="1">
          <mxGeometry relative="1" as="geometry" />
        </mxCell>
        <mxCell id="hOf3AfDxxuHpBkmNz-YH-95" style="edgeStyle=none;curved=1;rounded=0;orthogonalLoop=1;jettySize=auto;html=1;entryX=0;entryY=0.5;entryDx=0;entryDy=0;fontSize=12;startSize=8;endSize=8;" parent="1" source="hOf3AfDxxuHpBkmNz-YH-2" target="hOf3AfDxxuHpBkmNz-YH-87" edge="1">
          <mxGeometry relative="1" as="geometry" />
        </mxCell>
        <mxCell id="hOf3AfDxxuHpBkmNz-YH-2" value="Orden" style="ellipse;whiteSpace=wrap;html=1;align=center;" parent="1" vertex="1">
          <mxGeometry x="360" y="660" width="80" height="80" as="geometry" />
        </mxCell>
        <mxCell id="hOf3AfDxxuHpBkmNz-YH-145" style="edgeStyle=none;curved=1;rounded=0;orthogonalLoop=1;jettySize=auto;html=1;entryX=1;entryY=1;entryDx=0;entryDy=0;fontSize=12;startSize=8;endSize=8;" parent="1" source="hOf3AfDxxuHpBkmNz-YH-6" target="hOf3AfDxxuHpBkmNz-YH-143" edge="1">
          <mxGeometry relative="1" as="geometry" />
        </mxCell>
        <mxCell id="hOf3AfDxxuHpBkmNz-YH-146" style="edgeStyle=none;curved=1;rounded=0;orthogonalLoop=1;jettySize=auto;html=1;entryX=1;entryY=0.5;entryDx=0;entryDy=0;fontSize=12;startSize=8;endSize=8;" parent="1" source="hOf3AfDxxuHpBkmNz-YH-6" target="hOf3AfDxxuHpBkmNz-YH-144" edge="1">
          <mxGeometry relative="1" as="geometry" />
        </mxCell>
        <mxCell id="hOf3AfDxxuHpBkmNz-YH-6" value="Tipo_Cliente" style="ellipse;whiteSpace=wrap;html=1;align=center;fontStyle=4;" parent="1" vertex="1">
          <mxGeometry x="54" y="660" width="80" height="80" as="geometry" />
        </mxCell>
        <mxCell id="hOf3AfDxxuHpBkmNz-YH-77" style="edgeStyle=none;curved=1;rounded=0;orthogonalLoop=1;jettySize=auto;html=1;entryX=0;entryY=0.5;entryDx=0;entryDy=0;fontSize=12;startSize=8;endSize=8;" parent="1" source="hOf3AfDxxuHpBkmNz-YH-8" target="hOf3AfDxxuHpBkmNz-YH-74" edge="1">
          <mxGeometry relative="1" as="geometry" />
        </mxCell>
        <mxCell id="hOf3AfDxxuHpBkmNz-YH-78" style="edgeStyle=none;curved=1;rounded=0;orthogonalLoop=1;jettySize=auto;html=1;entryX=0;entryY=0.5;entryDx=0;entryDy=0;fontSize=12;startSize=8;endSize=8;" parent="1" source="hOf3AfDxxuHpBkmNz-YH-8" target="hOf3AfDxxuHpBkmNz-YH-75" edge="1">
          <mxGeometry relative="1" as="geometry" />
        </mxCell>
        <mxCell id="hOf3AfDxxuHpBkmNz-YH-8" value="Pedido" style="ellipse;whiteSpace=wrap;html=1;align=center;" parent="1" vertex="1">
          <mxGeometry x="540" y="392.5" width="80" height="90" as="geometry" />
        </mxCell>
        <mxCell id="hOf3AfDxxuHpBkmNz-YH-9" value="Ord_ID" style="text;html=1;align=center;verticalAlign=middle;whiteSpace=wrap;rounded=0;fontSize=16;" parent="1" vertex="1">
          <mxGeometry x="565.5" y="610" width="60" height="30" as="geometry" />
        </mxCell>
        <mxCell id="hOf3AfDxxuHpBkmNz-YH-12" value="Ord_Fecha" style="text;html=1;align=center;verticalAlign=middle;whiteSpace=wrap;rounded=0;fontSize=16;" parent="1" vertex="1">
          <mxGeometry x="580" y="650" width="60" height="30" as="geometry" />
        </mxCell>
        <mxCell id="hOf3AfDxxuHpBkmNz-YH-13" value="&lt;blockquote style=&quot;margin: 0 0 0 40px; border: none; padding: 0px;&quot;&gt;Mes_ID&lt;/blockquote&gt;" style="text;html=1;align=center;verticalAlign=middle;whiteSpace=wrap;rounded=0;fontSize=16;" parent="1" vertex="1">
          <mxGeometry x="528" y="810" width="105" height="30" as="geometry" />
        </mxCell>
        <mxCell id="hOf3AfDxxuHpBkmNz-YH-14" value="Mes_ID" style="text;html=1;align=center;verticalAlign=middle;whiteSpace=wrap;rounded=0;fontSize=16;" parent="1" vertex="1">
          <mxGeometry x="521" y="1029" width="60" height="30" as="geometry" />
        </mxCell>
        <mxCell id="hOf3AfDxxuHpBkmNz-YH-15" value="Mes_Nombre" style="text;html=1;align=center;verticalAlign=middle;whiteSpace=wrap;rounded=0;fontSize=16;" parent="1" vertex="1">
          <mxGeometry x="542" y="1099" width="60" height="30" as="geometry" />
        </mxCell>
        <mxCell id="hOf3AfDxxuHpBkmNz-YH-16" value="TiC_ID" style="text;html=1;align=center;verticalAlign=middle;whiteSpace=wrap;rounded=0;fontSize=16;" parent="1" vertex="1">
          <mxGeometry x="-77.5" y="655" width="60" height="30" as="geometry" />
        </mxCell>
        <mxCell id="hOf3AfDxxuHpBkmNz-YH-17" value="Mesa_ID" style="text;html=1;align=center;verticalAlign=middle;whiteSpace=wrap;rounded=0;fontSize=16;" parent="1" vertex="1">
          <mxGeometry x="572" y="770" width="60" height="30" as="geometry" />
        </mxCell>
        <mxCell id="hOf3AfDxxuHpBkmNz-YH-18" value="TiC_Tipo" style="text;html=1;align=center;verticalAlign=middle;whiteSpace=wrap;rounded=0;fontSize=16;" parent="1" vertex="1">
          <mxGeometry x="-79.5" y="705" width="60" height="30" as="geometry" />
        </mxCell>
        <mxCell id="hOf3AfDxxuHpBkmNz-YH-19" value="TiC_ID" style="text;html=1;align=center;verticalAlign=middle;whiteSpace=wrap;rounded=0;fontSize=16;" parent="1" vertex="1">
          <mxGeometry x="568" y="860" width="60" height="30" as="geometry" />
        </mxCell>
        <mxCell id="hOf3AfDxxuHpBkmNz-YH-23" value="Ord_Propina" style="text;html=1;align=center;verticalAlign=middle;whiteSpace=wrap;rounded=0;fontSize=16;" parent="1" vertex="1">
          <mxGeometry x="583" y="730" width="60" height="30" as="geometry" />
        </mxCell>
        <mxCell id="hOf3AfDxxuHpBkmNz-YH-27" value="Ord_Precio" style="text;html=1;align=center;verticalAlign=middle;whiteSpace=wrap;rounded=0;fontSize=16;" parent="1" vertex="1">
          <mxGeometry x="581" y="690" width="60" height="30" as="geometry" />
        </mxCell>
        <mxCell id="hOf3AfDxxuHpBkmNz-YH-28" value="Ord_ID" style="text;html=1;align=center;verticalAlign=middle;whiteSpace=wrap;rounded=0;fontSize=16;" parent="1" vertex="1">
          <mxGeometry x="725" y="430" width="60" height="30" as="geometry" />
        </mxCell>
        <mxCell id="hOf3AfDxxuHpBkmNz-YH-68" style="edgeStyle=none;curved=1;rounded=0;orthogonalLoop=1;jettySize=auto;html=1;entryX=0;entryY=0.5;entryDx=0;entryDy=0;fontSize=12;startSize=8;endSize=8;" parent="1" source="hOf3AfDxxuHpBkmNz-YH-36" target="hOf3AfDxxuHpBkmNz-YH-61" edge="1">
          <mxGeometry relative="1" as="geometry" />
        </mxCell>
        <mxCell id="hOf3AfDxxuHpBkmNz-YH-69" style="edgeStyle=none;curved=1;rounded=0;orthogonalLoop=1;jettySize=auto;html=1;entryX=0;entryY=0.5;entryDx=0;entryDy=0;fontSize=12;startSize=8;endSize=8;" parent="1" source="hOf3AfDxxuHpBkmNz-YH-36" target="hOf3AfDxxuHpBkmNz-YH-62" edge="1">
          <mxGeometry relative="1" as="geometry" />
        </mxCell>
        <mxCell id="hOf3AfDxxuHpBkmNz-YH-70" style="edgeStyle=none;curved=1;rounded=0;orthogonalLoop=1;jettySize=auto;html=1;entryX=0;entryY=0.5;entryDx=0;entryDy=0;fontSize=12;startSize=8;endSize=8;" parent="1" source="hOf3AfDxxuHpBkmNz-YH-36" target="hOf3AfDxxuHpBkmNz-YH-64" edge="1">
          <mxGeometry relative="1" as="geometry" />
        </mxCell>
        <mxCell id="hOf3AfDxxuHpBkmNz-YH-72" style="edgeStyle=none;curved=1;rounded=0;orthogonalLoop=1;jettySize=auto;html=1;entryX=0;entryY=0.5;entryDx=0;entryDy=0;fontSize=12;startSize=8;endSize=8;" parent="1" source="hOf3AfDxxuHpBkmNz-YH-36" target="hOf3AfDxxuHpBkmNz-YH-66" edge="1">
          <mxGeometry relative="1" as="geometry" />
        </mxCell>
        <mxCell id="hOf3AfDxxuHpBkmNz-YH-73" style="edgeStyle=none;curved=1;rounded=0;orthogonalLoop=1;jettySize=auto;html=1;entryX=0;entryY=0.5;entryDx=0;entryDy=0;fontSize=12;startSize=8;endSize=8;" parent="1" source="hOf3AfDxxuHpBkmNz-YH-36" target="hOf3AfDxxuHpBkmNz-YH-67" edge="1">
          <mxGeometry relative="1" as="geometry" />
        </mxCell>
        <mxCell id="hOf3AfDxxuHpBkmNz-YH-36" value="Producto" style="ellipse;whiteSpace=wrap;html=1;aspect=fixed;" parent="1" vertex="1">
          <mxGeometry x="360" y="175" width="80" height="80" as="geometry" />
        </mxCell>
        <mxCell id="hOf3AfDxxuHpBkmNz-YH-37" value="Prod_ID" style="text;html=1;align=center;verticalAlign=middle;whiteSpace=wrap;rounded=0;fontSize=16;" parent="1" vertex="1">
          <mxGeometry x="607" y="90" width="60" height="30" as="geometry" />
        </mxCell>
        <mxCell id="hOf3AfDxxuHpBkmNz-YH-38" value="Prod_Nombre" style="text;html=1;align=center;verticalAlign=middle;whiteSpace=wrap;rounded=0;fontSize=16;" parent="1" vertex="1">
          <mxGeometry x="626" y="140" width="60" height="30" as="geometry" />
        </mxCell>
        <mxCell id="hOf3AfDxxuHpBkmNz-YH-39" value="TiP_ID" style="text;html=1;align=center;verticalAlign=middle;whiteSpace=wrap;rounded=0;fontSize=16;" parent="1" vertex="1">
          <mxGeometry x="600" y="321" width="60" height="30" as="geometry" />
        </mxCell>
        <mxCell id="hOf3AfDxxuHpBkmNz-YH-40" value="Prod_Costo" style="text;html=1;align=center;verticalAlign=middle;whiteSpace=wrap;rounded=0;fontSize=16;" parent="1" vertex="1">
          <mxGeometry x="618" y="190" width="60" height="30" as="geometry" />
        </mxCell>
        <mxCell id="hOf3AfDxxuHpBkmNz-YH-42" value="CaP_ID" style="text;html=1;align=center;verticalAlign=middle;whiteSpace=wrap;rounded=0;fontSize=16;" parent="1" vertex="1">
          <mxGeometry x="602" y="265" width="60" height="30" as="geometry" />
        </mxCell>
        <mxCell id="hOf3AfDxxuHpBkmNz-YH-141" style="edgeStyle=none;curved=1;rounded=0;orthogonalLoop=1;jettySize=auto;html=1;entryX=1;entryY=1;entryDx=0;entryDy=0;fontSize=12;startSize=8;endSize=8;" parent="1" source="hOf3AfDxxuHpBkmNz-YH-43" target="hOf3AfDxxuHpBkmNz-YH-50" edge="1">
          <mxGeometry relative="1" as="geometry" />
        </mxCell>
        <mxCell id="hOf3AfDxxuHpBkmNz-YH-142" style="edgeStyle=none;curved=1;rounded=0;orthogonalLoop=1;jettySize=auto;html=1;entryX=1;entryY=0.5;entryDx=0;entryDy=0;fontSize=12;startSize=8;endSize=8;" parent="1" source="hOf3AfDxxuHpBkmNz-YH-43" target="hOf3AfDxxuHpBkmNz-YH-52" edge="1">
          <mxGeometry relative="1" as="geometry" />
        </mxCell>
        <mxCell id="hOf3AfDxxuHpBkmNz-YH-43" value="Tipo_Producto" style="ellipse;whiteSpace=wrap;html=1;aspect=fixed;" parent="1" vertex="1">
          <mxGeometry x="28" y="173.5" width="80" height="80" as="geometry" />
        </mxCell>
        <mxCell id="hOf3AfDxxuHpBkmNz-YH-44" value="TiP_ID" style="text;html=1;align=center;verticalAlign=middle;whiteSpace=wrap;rounded=0;fontSize=16;" parent="1" vertex="1">
          <mxGeometry x="-100" y="171" width="60" height="30" as="geometry" />
        </mxCell>
        <mxCell id="hOf3AfDxxuHpBkmNz-YH-45" value="TiP_Nombre" style="text;html=1;align=center;verticalAlign=middle;whiteSpace=wrap;rounded=0;fontSize=16;" parent="1" vertex="1">
          <mxGeometry x="-120" y="226" width="60" height="30" as="geometry" />
        </mxCell>
        <mxCell id="hOf3AfDxxuHpBkmNz-YH-57" style="edgeStyle=none;curved=1;rounded=0;orthogonalLoop=1;jettySize=auto;html=1;fontSize=12;startSize=8;endSize=8;entryX=0;entryY=0.5;entryDx=0;entryDy=0;" parent="1" source="hOf3AfDxxuHpBkmNz-YH-46" target="hOf3AfDxxuHpBkmNz-YH-58" edge="1">
          <mxGeometry relative="1" as="geometry">
            <mxPoint x="499" y="-140.0000000000001" as="targetPoint" />
          </mxGeometry>
        </mxCell>
        <mxCell id="hOf3AfDxxuHpBkmNz-YH-60" style="edgeStyle=none;curved=1;rounded=0;orthogonalLoop=1;jettySize=auto;html=1;entryX=0;entryY=0.5;entryDx=0;entryDy=0;fontSize=12;startSize=8;endSize=8;" parent="1" source="hOf3AfDxxuHpBkmNz-YH-46" target="hOf3AfDxxuHpBkmNz-YH-59" edge="1">
          <mxGeometry relative="1" as="geometry" />
        </mxCell>
        <mxCell id="hOf3AfDxxuHpBkmNz-YH-46" value="Categoria_Producto" style="ellipse;whiteSpace=wrap;html=1;aspect=fixed;" parent="1" vertex="1">
          <mxGeometry x="355" y="-140" width="90" height="90" as="geometry" />
        </mxCell>
        <mxCell id="hOf3AfDxxuHpBkmNz-YH-47" value="CaP_ID" style="text;html=1;align=center;verticalAlign=middle;whiteSpace=wrap;rounded=0;fontSize=16;" parent="1" vertex="1">
          <mxGeometry x="529" y="-160" width="60" height="30" as="geometry" />
        </mxCell>
        <mxCell id="hOf3AfDxxuHpBkmNz-YH-48" value="CaP_Nombre" style="text;html=1;align=center;verticalAlign=middle;whiteSpace=wrap;rounded=0;fontSize=16;" parent="1" vertex="1">
          <mxGeometry x="540" y="-100" width="60" height="30" as="geometry" />
        </mxCell>
        <mxCell id="hOf3AfDxxuHpBkmNz-YH-49" value="Pro_ID" style="text;html=1;align=center;verticalAlign=middle;whiteSpace=wrap;rounded=0;fontSize=16;" parent="1" vertex="1">
          <mxGeometry x="725" y="485" width="60" height="30" as="geometry" />
        </mxCell>
        <mxCell id="hOf3AfDxxuHpBkmNz-YH-50" value="" style="ellipse;whiteSpace=wrap;html=1;aspect=fixed;" parent="1" vertex="1">
          <mxGeometry x="-46" y="176" width="20" height="20" as="geometry" />
        </mxCell>
        <mxCell id="hOf3AfDxxuHpBkmNz-YH-52" value="" style="ellipse;whiteSpace=wrap;html=1;aspect=fixed;" parent="1" vertex="1">
          <mxGeometry x="-46" y="231" width="20" height="20" as="geometry" />
        </mxCell>
        <mxCell id="hOf3AfDxxuHpBkmNz-YH-58" value="" style="ellipse;whiteSpace=wrap;html=1;aspect=fixed;" parent="1" vertex="1">
          <mxGeometry x="509" y="-155" width="20" height="20" as="geometry" />
        </mxCell>
        <mxCell id="hOf3AfDxxuHpBkmNz-YH-59" value="" style="ellipse;whiteSpace=wrap;html=1;aspect=fixed;" parent="1" vertex="1">
          <mxGeometry x="499" y="-95" width="20" height="20" as="geometry" />
        </mxCell>
        <mxCell id="hOf3AfDxxuHpBkmNz-YH-61" value="" style="ellipse;whiteSpace=wrap;html=1;aspect=fixed;" parent="1" vertex="1">
          <mxGeometry x="580" y="95" width="20" height="20" as="geometry" />
        </mxCell>
        <mxCell id="hOf3AfDxxuHpBkmNz-YH-62" value="" style="ellipse;whiteSpace=wrap;html=1;aspect=fixed;" parent="1" vertex="1">
          <mxGeometry x="580" y="140" width="20" height="20" as="geometry" />
        </mxCell>
        <mxCell id="hOf3AfDxxuHpBkmNz-YH-64" value="" style="ellipse;whiteSpace=wrap;html=1;aspect=fixed;" parent="1" vertex="1">
          <mxGeometry x="580" y="195" width="20" height="20" as="geometry" />
        </mxCell>
        <mxCell id="hOf3AfDxxuHpBkmNz-YH-66" value="" style="ellipse;whiteSpace=wrap;html=1;aspect=fixed;" parent="1" vertex="1">
          <mxGeometry x="578" y="270" width="20" height="20" as="geometry" />
        </mxCell>
        <mxCell id="hOf3AfDxxuHpBkmNz-YH-67" value="" style="ellipse;whiteSpace=wrap;html=1;aspect=fixed;" parent="1" vertex="1">
          <mxGeometry x="578" y="325" width="20" height="20" as="geometry" />
        </mxCell>
        <mxCell id="hOf3AfDxxuHpBkmNz-YH-74" value="" style="ellipse;whiteSpace=wrap;html=1;aspect=fixed;" parent="1" vertex="1">
          <mxGeometry x="700" y="435" width="20" height="20" as="geometry" />
        </mxCell>
        <mxCell id="hOf3AfDxxuHpBkmNz-YH-75" value="" style="ellipse;whiteSpace=wrap;html=1;aspect=fixed;" parent="1" vertex="1">
          <mxGeometry x="700" y="490" width="20" height="20" as="geometry" />
        </mxCell>
        <mxCell id="hOf3AfDxxuHpBkmNz-YH-80" value="" style="ellipse;whiteSpace=wrap;html=1;aspect=fixed;" parent="1" vertex="1">
          <mxGeometry x="545.5" y="615" width="20" height="20" as="geometry" />
        </mxCell>
        <mxCell id="hOf3AfDxxuHpBkmNz-YH-82" value="" style="ellipse;whiteSpace=wrap;html=1;aspect=fixed;" parent="1" vertex="1">
          <mxGeometry x="545.5" y="655" width="20" height="20" as="geometry" />
        </mxCell>
        <mxCell id="hOf3AfDxxuHpBkmNz-YH-83" value="" style="ellipse;whiteSpace=wrap;html=1;aspect=fixed;" parent="1" vertex="1">
          <mxGeometry x="545.5" y="695" width="20" height="20" as="geometry" />
        </mxCell>
        <mxCell id="hOf3AfDxxuHpBkmNz-YH-84" value="" style="ellipse;whiteSpace=wrap;html=1;aspect=fixed;" parent="1" vertex="1">
          <mxGeometry x="545.5" y="735" width="20" height="20" as="geometry" />
        </mxCell>
        <mxCell id="hOf3AfDxxuHpBkmNz-YH-85" value="" style="ellipse;whiteSpace=wrap;html=1;aspect=fixed;" parent="1" vertex="1">
          <mxGeometry x="545.5" y="775" width="20" height="20" as="geometry" />
        </mxCell>
        <mxCell id="hOf3AfDxxuHpBkmNz-YH-86" value="" style="ellipse;whiteSpace=wrap;html=1;aspect=fixed;" parent="1" vertex="1">
          <mxGeometry x="545.5" y="815" width="20" height="20" as="geometry" />
        </mxCell>
        <mxCell id="hOf3AfDxxuHpBkmNz-YH-87" value="" style="ellipse;whiteSpace=wrap;html=1;aspect=fixed;" parent="1" vertex="1">
          <mxGeometry x="546" y="865" width="20" height="20" as="geometry" />
        </mxCell>
        <mxCell id="hOf3AfDxxuHpBkmNz-YH-96" value="" style="ellipse;whiteSpace=wrap;html=1;aspect=fixed;" parent="1" vertex="1">
          <mxGeometry x="502" y="1034" width="20" height="20" as="geometry" />
        </mxCell>
        <mxCell id="hOf3AfDxxuHpBkmNz-YH-97" value="" style="ellipse;whiteSpace=wrap;html=1;aspect=fixed;" parent="1" vertex="1">
          <mxGeometry x="501" y="1099" width="20" height="20" as="geometry" />
        </mxCell>
        <mxCell id="hOf3AfDxxuHpBkmNz-YH-115" style="edgeStyle=none;curved=1;rounded=0;orthogonalLoop=1;jettySize=auto;html=1;entryX=0;entryY=0.5;entryDx=0;entryDy=0;fontSize=12;startSize=8;endSize=8;" parent="1" source="hOf3AfDxxuHpBkmNz-YH-110" target="hOf3AfDxxuHpBkmNz-YH-8" edge="1">
          <mxGeometry relative="1" as="geometry" />
        </mxCell>
        <mxCell id="hOf3AfDxxuHpBkmNz-YH-110" value="N:N" style="rhombus;whiteSpace=wrap;html=1;" parent="1" vertex="1">
          <mxGeometry x="360" y="395" width="80" height="80" as="geometry" />
        </mxCell>
        <mxCell id="hOf3AfDxxuHpBkmNz-YH-113" value="" style="endArrow=none;dashed=1;html=1;rounded=0;fontSize=12;startSize=8;endSize=8;curved=1;entryX=0.5;entryY=1;entryDx=0;entryDy=0;exitX=0.5;exitY=0;exitDx=0;exitDy=0;" parent="1" source="hOf3AfDxxuHpBkmNz-YH-2" target="hOf3AfDxxuHpBkmNz-YH-110" edge="1">
          <mxGeometry width="50" height="50" relative="1" as="geometry">
            <mxPoint x="380" y="670" as="sourcePoint" />
            <mxPoint x="430" y="620" as="targetPoint" />
          </mxGeometry>
        </mxCell>
        <mxCell id="hOf3AfDxxuHpBkmNz-YH-114" value="" style="endArrow=none;dashed=1;html=1;rounded=0;fontSize=12;startSize=8;endSize=8;curved=1;entryX=0.5;entryY=1;entryDx=0;entryDy=0;exitX=0.5;exitY=0;exitDx=0;exitDy=0;" parent="1" source="hOf3AfDxxuHpBkmNz-YH-110" target="hOf3AfDxxuHpBkmNz-YH-36" edge="1">
          <mxGeometry width="50" height="50" relative="1" as="geometry">
            <mxPoint x="350" y="330" as="sourcePoint" />
            <mxPoint x="400" y="280" as="targetPoint" />
          </mxGeometry>
        </mxCell>
        <mxCell id="hOf3AfDxxuHpBkmNz-YH-116" value="N" style="text;html=1;align=center;verticalAlign=middle;resizable=0;points=[];autosize=1;strokeColor=none;fillColor=none;fontSize=16;" parent="1" vertex="1">
          <mxGeometry x="359" y="260" width="40" height="30" as="geometry" />
        </mxCell>
        <mxCell id="hOf3AfDxxuHpBkmNz-YH-117" value="N" style="text;html=1;align=center;verticalAlign=middle;resizable=0;points=[];autosize=1;strokeColor=none;fillColor=none;fontSize=16;" parent="1" vertex="1">
          <mxGeometry x="400" y="260" width="40" height="30" as="geometry" />
        </mxCell>
        <mxCell id="hOf3AfDxxuHpBkmNz-YH-118" value="N" style="text;html=1;align=center;verticalAlign=middle;resizable=0;points=[];autosize=1;strokeColor=none;fillColor=none;fontSize=16;" parent="1" vertex="1">
          <mxGeometry x="364" y="630" width="40" height="30" as="geometry" />
        </mxCell>
        <mxCell id="hOf3AfDxxuHpBkmNz-YH-119" value="N" style="text;html=1;align=center;verticalAlign=middle;resizable=0;points=[];autosize=1;strokeColor=none;fillColor=none;fontSize=16;" parent="1" vertex="1">
          <mxGeometry x="399" y="630" width="40" height="30" as="geometry" />
        </mxCell>
        <mxCell id="hOf3AfDxxuHpBkmNz-YH-121" value="1:N" style="rhombus;whiteSpace=wrap;html=1;" parent="1" vertex="1">
          <mxGeometry x="360" y="20" width="80" height="80" as="geometry" />
        </mxCell>
        <mxCell id="hOf3AfDxxuHpBkmNz-YH-122" value="" style="endArrow=none;dashed=1;html=1;rounded=0;fontSize=12;startSize=8;endSize=8;curved=1;exitX=0.5;exitY=0;exitDx=0;exitDy=0;entryX=0.5;entryY=1;entryDx=0;entryDy=0;" parent="1" source="hOf3AfDxxuHpBkmNz-YH-36" target="hOf3AfDxxuHpBkmNz-YH-121" edge="1">
          <mxGeometry width="50" height="50" relative="1" as="geometry">
            <mxPoint x="400" y="170" as="sourcePoint" />
            <mxPoint x="460" y="20" as="targetPoint" />
          </mxGeometry>
        </mxCell>
        <mxCell id="hOf3AfDxxuHpBkmNz-YH-123" value="" style="endArrow=none;dashed=1;html=1;rounded=0;fontSize=12;startSize=8;endSize=8;curved=1;entryX=0.5;entryY=0;entryDx=0;entryDy=0;exitX=0.5;exitY=1;exitDx=0;exitDy=0;" parent="1" source="hOf3AfDxxuHpBkmNz-YH-46" target="hOf3AfDxxuHpBkmNz-YH-121" edge="1">
          <mxGeometry width="50" height="50" relative="1" as="geometry">
            <mxPoint x="640" y="70" as="sourcePoint" />
            <mxPoint x="690" y="20" as="targetPoint" />
          </mxGeometry>
        </mxCell>
        <mxCell id="hOf3AfDxxuHpBkmNz-YH-125" value="1" style="text;html=1;align=center;verticalAlign=middle;resizable=0;points=[];autosize=1;strokeColor=none;fillColor=none;fontSize=16;" parent="1" vertex="1">
          <mxGeometry x="409" y="151" width="30" height="30" as="geometry" />
        </mxCell>
        <mxCell id="hOf3AfDxxuHpBkmNz-YH-126" value="1" style="text;html=1;align=center;verticalAlign=middle;resizable=0;points=[];autosize=1;strokeColor=none;fillColor=none;fontSize=16;" parent="1" vertex="1">
          <mxGeometry x="369" y="145" width="30" height="30" as="geometry" />
        </mxCell>
        <mxCell id="hOf3AfDxxuHpBkmNz-YH-127" value="1" style="text;html=1;align=center;verticalAlign=middle;resizable=0;points=[];autosize=1;strokeColor=none;fillColor=none;fontSize=16;" parent="1" vertex="1">
          <mxGeometry x="363" y="-50" width="30" height="30" as="geometry" />
        </mxCell>
        <mxCell id="hOf3AfDxxuHpBkmNz-YH-128" value="N" style="text;html=1;align=center;verticalAlign=middle;resizable=0;points=[];autosize=1;strokeColor=none;fillColor=none;fontSize=16;" parent="1" vertex="1">
          <mxGeometry x="399" y="-50" width="40" height="30" as="geometry" />
        </mxCell>
        <mxCell id="hOf3AfDxxuHpBkmNz-YH-129" value="1:N" style="rhombus;whiteSpace=wrap;html=1;" parent="1" vertex="1">
          <mxGeometry x="200" y="175" width="80" height="80" as="geometry" />
        </mxCell>
        <mxCell id="hOf3AfDxxuHpBkmNz-YH-130" value="" style="endArrow=none;dashed=1;html=1;rounded=0;fontSize=12;startSize=8;endSize=8;curved=1;exitX=1;exitY=0.5;exitDx=0;exitDy=0;entryX=0;entryY=0.5;entryDx=0;entryDy=0;" parent="1" source="hOf3AfDxxuHpBkmNz-YH-129" target="hOf3AfDxxuHpBkmNz-YH-36" edge="1">
          <mxGeometry width="50" height="50" relative="1" as="geometry">
            <mxPoint x="70" y="70" as="sourcePoint" />
            <mxPoint x="120" y="20" as="targetPoint" />
          </mxGeometry>
        </mxCell>
        <mxCell id="hOf3AfDxxuHpBkmNz-YH-131" value="" style="endArrow=none;dashed=1;html=1;rounded=0;fontSize=12;startSize=8;endSize=8;curved=1;exitX=1;exitY=0.5;exitDx=0;exitDy=0;entryX=0;entryY=0.5;entryDx=0;entryDy=0;" parent="1" source="hOf3AfDxxuHpBkmNz-YH-43" target="hOf3AfDxxuHpBkmNz-YH-129" edge="1">
          <mxGeometry width="50" height="50" relative="1" as="geometry">
            <mxPoint x="140" y="230" as="sourcePoint" />
            <mxPoint x="190" y="180" as="targetPoint" />
          </mxGeometry>
        </mxCell>
        <mxCell id="hOf3AfDxxuHpBkmNz-YH-133" value="1" style="text;html=1;align=center;verticalAlign=middle;resizable=0;points=[];autosize=1;strokeColor=none;fillColor=none;fontSize=16;" parent="1" vertex="1">
          <mxGeometry x="329" y="171" width="30" height="30" as="geometry" />
        </mxCell>
        <mxCell id="hOf3AfDxxuHpBkmNz-YH-134" value="1" style="text;html=1;align=center;verticalAlign=middle;resizable=0;points=[];autosize=1;strokeColor=none;fillColor=none;fontSize=16;" parent="1" vertex="1">
          <mxGeometry x="329" y="221" width="30" height="30" as="geometry" />
        </mxCell>
        <mxCell id="hOf3AfDxxuHpBkmNz-YH-135" value="1" style="text;html=1;align=center;verticalAlign=middle;resizable=0;points=[];autosize=1;strokeColor=none;fillColor=none;fontSize=16;" parent="1" vertex="1">
          <mxGeometry x="108" y="184.5" width="30" height="30" as="geometry" />
        </mxCell>
        <mxCell id="hOf3AfDxxuHpBkmNz-YH-136" value="N" style="text;html=1;align=center;verticalAlign=middle;resizable=0;points=[];autosize=1;strokeColor=none;fillColor=none;fontSize=16;" parent="1" vertex="1">
          <mxGeometry x="104" y="219.5" width="40" height="30" as="geometry" />
        </mxCell>
        <mxCell id="hOf3AfDxxuHpBkmNz-YH-143" value="" style="ellipse;whiteSpace=wrap;html=1;aspect=fixed;" parent="1" vertex="1">
          <mxGeometry x="-21.5" y="660" width="20" height="20" as="geometry" />
        </mxCell>
        <mxCell id="hOf3AfDxxuHpBkmNz-YH-144" value="" style="ellipse;whiteSpace=wrap;html=1;aspect=fixed;" parent="1" vertex="1">
          <mxGeometry x="-14.5" y="710" width="20" height="20" as="geometry" />
        </mxCell>
        <mxCell id="hOf3AfDxxuHpBkmNz-YH-147" value="1:N" style="rhombus;whiteSpace=wrap;html=1;" parent="1" vertex="1">
          <mxGeometry x="200" y="660" width="80" height="80" as="geometry" />
        </mxCell>
        <mxCell id="hOf3AfDxxuHpBkmNz-YH-148" value="" style="endArrow=none;dashed=1;html=1;rounded=0;fontSize=12;startSize=8;endSize=8;curved=1;exitX=1;exitY=0.5;exitDx=0;exitDy=0;entryX=0;entryY=0.5;entryDx=0;entryDy=0;" parent="1" source="hOf3AfDxxuHpBkmNz-YH-147" target="hOf3AfDxxuHpBkmNz-YH-2" edge="1">
          <mxGeometry width="50" height="50" relative="1" as="geometry">
            <mxPoint x="300" y="790" as="sourcePoint" />
            <mxPoint x="350" y="740" as="targetPoint" />
          </mxGeometry>
        </mxCell>
        <mxCell id="hOf3AfDxxuHpBkmNz-YH-149" value="" style="endArrow=none;dashed=1;html=1;rounded=0;fontSize=12;startSize=8;endSize=8;curved=1;exitX=0;exitY=0.5;exitDx=0;exitDy=0;entryX=1;entryY=0.5;entryDx=0;entryDy=0;" parent="1" source="hOf3AfDxxuHpBkmNz-YH-147" target="hOf3AfDxxuHpBkmNz-YH-6" edge="1">
          <mxGeometry width="50" height="50" relative="1" as="geometry">
            <mxPoint x="290" y="700" as="sourcePoint" />
            <mxPoint x="370" y="710" as="targetPoint" />
          </mxGeometry>
        </mxCell>
        <mxCell id="hOf3AfDxxuHpBkmNz-YH-150" value="1" style="text;html=1;align=center;verticalAlign=middle;resizable=0;points=[];autosize=1;strokeColor=none;fillColor=none;fontSize=16;" parent="1" vertex="1">
          <mxGeometry x="129" y="671" width="30" height="30" as="geometry" />
        </mxCell>
        <mxCell id="hOf3AfDxxuHpBkmNz-YH-151" value="N" style="text;html=1;align=center;verticalAlign=middle;resizable=0;points=[];autosize=1;strokeColor=none;fillColor=none;fontSize=16;" parent="1" vertex="1">
          <mxGeometry x="124" y="701" width="40" height="30" as="geometry" />
        </mxCell>
        <mxCell id="hOf3AfDxxuHpBkmNz-YH-152" value="1" style="text;html=1;align=center;verticalAlign=middle;resizable=0;points=[];autosize=1;strokeColor=none;fillColor=none;fontSize=16;" parent="1" vertex="1">
          <mxGeometry x="339" y="701" width="30" height="30" as="geometry" />
        </mxCell>
        <mxCell id="hOf3AfDxxuHpBkmNz-YH-153" value="1" style="text;html=1;align=center;verticalAlign=middle;resizable=0;points=[];autosize=1;strokeColor=none;fillColor=none;fontSize=16;" parent="1" vertex="1">
          <mxGeometry x="339" y="671" width="30" height="30" as="geometry" />
        </mxCell>
        <mxCell id="hOf3AfDxxuHpBkmNz-YH-154" value="1:N" style="rhombus;whiteSpace=wrap;html=1;" parent="1" vertex="1">
          <mxGeometry x="360" y="860" width="80" height="80" as="geometry" />
        </mxCell>
        <mxCell id="hOf3AfDxxuHpBkmNz-YH-155" value="" style="endArrow=none;dashed=1;html=1;rounded=0;fontSize=12;startSize=8;endSize=8;curved=1;exitX=0.5;exitY=0;exitDx=0;exitDy=0;entryX=0.5;entryY=1;entryDx=0;entryDy=0;" parent="1" source="hOf3AfDxxuHpBkmNz-YH-154" target="hOf3AfDxxuHpBkmNz-YH-2" edge="1">
          <mxGeometry width="50" height="50" relative="1" as="geometry">
            <mxPoint x="350" y="830" as="sourcePoint" />
            <mxPoint x="400" y="780" as="targetPoint" />
          </mxGeometry>
        </mxCell>
        <mxCell id="hOf3AfDxxuHpBkmNz-YH-156" value="" style="endArrow=none;dashed=1;html=1;rounded=0;fontSize=12;startSize=8;endSize=8;curved=1;entryX=0.5;entryY=1;entryDx=0;entryDy=0;exitX=0.5;exitY=0;exitDx=0;exitDy=0;" parent="1" source="hOf3AfDxxuHpBkmNz-YH-1" target="hOf3AfDxxuHpBkmNz-YH-154" edge="1">
          <mxGeometry width="50" height="50" relative="1" as="geometry">
            <mxPoint x="350" y="1190" as="sourcePoint" />
            <mxPoint x="400" y="1140" as="targetPoint" />
          </mxGeometry>
        </mxCell>
        <mxCell id="hOf3AfDxxuHpBkmNz-YH-157" value="1" style="text;html=1;align=center;verticalAlign=middle;resizable=0;points=[];autosize=1;strokeColor=none;fillColor=none;fontSize=16;" parent="1" vertex="1">
          <mxGeometry x="379" y="741" width="30" height="30" as="geometry" />
        </mxCell>
        <mxCell id="hOf3AfDxxuHpBkmNz-YH-158" value="1" style="text;html=1;align=center;verticalAlign=middle;resizable=0;points=[];autosize=1;strokeColor=none;fillColor=none;fontSize=16;" parent="1" vertex="1">
          <mxGeometry x="399" y="741" width="30" height="30" as="geometry" />
        </mxCell>
        <mxCell id="hOf3AfDxxuHpBkmNz-YH-159" value="1" style="text;html=1;align=center;verticalAlign=middle;resizable=0;points=[];autosize=1;strokeColor=none;fillColor=none;fontSize=16;" parent="1" vertex="1">
          <mxGeometry x="376.5" y="1010" width="30" height="30" as="geometry" />
        </mxCell>
        <mxCell id="hOf3AfDxxuHpBkmNz-YH-161" value="N" style="text;html=1;align=center;verticalAlign=middle;resizable=0;points=[];autosize=1;strokeColor=none;fillColor=none;fontSize=16;" parent="1" vertex="1">
          <mxGeometry x="391.5" y="1010" width="40" height="30" as="geometry" />
        </mxCell>
        <mxCell id="e6mvvulvL-qWB771PHOu-1" style="edgeStyle=none;curved=1;rounded=0;orthogonalLoop=1;jettySize=auto;html=1;entryX=0;entryY=0.5;entryDx=0;entryDy=0;fontSize=12;startSize=8;endSize=8;exitX=1;exitY=0.5;exitDx=0;exitDy=0;" parent="1" source="hOf3AfDxxuHpBkmNz-YH-36" target="e6mvvulvL-qWB771PHOu-3" edge="1">
          <mxGeometry relative="1" as="geometry">
            <mxPoint x="450" y="223" as="sourcePoint" />
          </mxGeometry>
        </mxCell>
        <mxCell id="e6mvvulvL-qWB771PHOu-2" value="Prod_Precio" style="text;html=1;align=center;verticalAlign=middle;whiteSpace=wrap;rounded=0;fontSize=16;" parent="1" vertex="1">
          <mxGeometry x="616" y="231" width="60" height="30" as="geometry" />
        </mxCell>
        <mxCell id="e6mvvulvL-qWB771PHOu-3" value="" style="ellipse;whiteSpace=wrap;html=1;aspect=fixed;" parent="1" vertex="1">
          <mxGeometry x="578" y="236" width="20" height="20" as="geometry" />
        </mxCell>
        <mxCell id="e6mvvulvL-qWB771PHOu-6" style="edgeStyle=none;curved=1;rounded=0;orthogonalLoop=1;jettySize=auto;html=1;entryX=0;entryY=0.5;entryDx=0;entryDy=0;fontSize=12;startSize=8;endSize=8;exitX=0.95;exitY=0.339;exitDx=0;exitDy=0;exitPerimeter=0;" parent="1" source="hOf3AfDxxuHpBkmNz-YH-8" target="e6mvvulvL-qWB771PHOu-8" edge="1">
          <mxGeometry relative="1" as="geometry">
            <mxPoint x="618" y="390" as="sourcePoint" />
          </mxGeometry>
        </mxCell>
        <mxCell id="e6mvvulvL-qWB771PHOu-7" value="Ped_ID" style="text;html=1;align=center;verticalAlign=middle;whiteSpace=wrap;rounded=0;fontSize=16;" parent="1" vertex="1">
          <mxGeometry x="723" y="379" width="60" height="30" as="geometry" />
        </mxCell>
        <mxCell id="e6mvvulvL-qWB771PHOu-8" value="" style="ellipse;whiteSpace=wrap;html=1;aspect=fixed;" parent="1" vertex="1">
          <mxGeometry x="698" y="385" width="20" height="20" as="geometry" />
        </mxCell>
        <mxCell id="53VEk4ZsRvkRP79_Khu0-1" style="edgeStyle=none;curved=1;rounded=0;orthogonalLoop=1;jettySize=auto;html=1;entryX=1;entryY=1;entryDx=0;entryDy=0;fontSize=12;startSize=8;endSize=8;" edge="1" parent="1" source="53VEk4ZsRvkRP79_Khu0-3" target="53VEk4ZsRvkRP79_Khu0-6">
          <mxGeometry relative="1" as="geometry" />
        </mxCell>
        <mxCell id="53VEk4ZsRvkRP79_Khu0-2" style="edgeStyle=none;curved=1;rounded=0;orthogonalLoop=1;jettySize=auto;html=1;entryX=1;entryY=0.5;entryDx=0;entryDy=0;fontSize=12;startSize=8;endSize=8;" edge="1" parent="1" source="53VEk4ZsRvkRP79_Khu0-3" target="53VEk4ZsRvkRP79_Khu0-7">
          <mxGeometry relative="1" as="geometry" />
        </mxCell>
        <mxCell id="53VEk4ZsRvkRP79_Khu0-3" value="Mesa" style="ellipse;whiteSpace=wrap;html=1;align=center;fontStyle=4;" vertex="1" parent="1">
          <mxGeometry x="54" y="520" width="80" height="80" as="geometry" />
        </mxCell>
        <mxCell id="53VEk4ZsRvkRP79_Khu0-4" value="Mesa_ID" style="text;html=1;align=center;verticalAlign=middle;whiteSpace=wrap;rounded=0;fontSize=16;" vertex="1" parent="1">
          <mxGeometry x="-85.5" y="515" width="60" height="30" as="geometry" />
        </mxCell>
        <mxCell id="53VEk4ZsRvkRP79_Khu0-5" value="Mesa_Nombre" style="text;html=1;align=center;verticalAlign=middle;whiteSpace=wrap;rounded=0;fontSize=16;" vertex="1" parent="1">
          <mxGeometry x="-100.5" y="565" width="60" height="30" as="geometry" />
        </mxCell>
        <mxCell id="53VEk4ZsRvkRP79_Khu0-6" value="" style="ellipse;whiteSpace=wrap;html=1;aspect=fixed;" vertex="1" parent="1">
          <mxGeometry x="-21.5" y="520" width="20" height="20" as="geometry" />
        </mxCell>
        <mxCell id="53VEk4ZsRvkRP79_Khu0-7" value="" style="ellipse;whiteSpace=wrap;html=1;aspect=fixed;" vertex="1" parent="1">
          <mxGeometry x="-14.5" y="570" width="20" height="20" as="geometry" />
        </mxCell>
        <mxCell id="53VEk4ZsRvkRP79_Khu0-8" value="1:N" style="rhombus;whiteSpace=wrap;html=1;" vertex="1" parent="1">
          <mxGeometry x="200" y="520" width="80" height="80" as="geometry" />
        </mxCell>
        <mxCell id="53VEk4ZsRvkRP79_Khu0-9" value="" style="endArrow=none;dashed=1;html=1;rounded=0;fontSize=12;startSize=8;endSize=8;curved=1;exitX=1;exitY=0.5;exitDx=0;exitDy=0;" edge="1" parent="1" source="53VEk4ZsRvkRP79_Khu0-8" target="hOf3AfDxxuHpBkmNz-YH-2">
          <mxGeometry width="50" height="50" relative="1" as="geometry">
            <mxPoint x="300" y="650" as="sourcePoint" />
            <mxPoint x="360" y="560" as="targetPoint" />
          </mxGeometry>
        </mxCell>
        <mxCell id="53VEk4ZsRvkRP79_Khu0-10" value="" style="endArrow=none;dashed=1;html=1;rounded=0;fontSize=12;startSize=8;endSize=8;curved=1;exitX=0;exitY=0.5;exitDx=0;exitDy=0;entryX=1;entryY=0.5;entryDx=0;entryDy=0;" edge="1" parent="1" source="53VEk4ZsRvkRP79_Khu0-8" target="53VEk4ZsRvkRP79_Khu0-3">
          <mxGeometry width="50" height="50" relative="1" as="geometry">
            <mxPoint x="290" y="560" as="sourcePoint" />
            <mxPoint x="370" y="570" as="targetPoint" />
          </mxGeometry>
        </mxCell>
        <mxCell id="53VEk4ZsRvkRP79_Khu0-11" value="1" style="text;html=1;align=center;verticalAlign=middle;resizable=0;points=[];autosize=1;strokeColor=none;fillColor=none;fontSize=16;" vertex="1" parent="1">
          <mxGeometry x="129" y="531" width="30" height="30" as="geometry" />
        </mxCell>
        <mxCell id="53VEk4ZsRvkRP79_Khu0-12" value="N" style="text;html=1;align=center;verticalAlign=middle;resizable=0;points=[];autosize=1;strokeColor=none;fillColor=none;fontSize=16;" vertex="1" parent="1">
          <mxGeometry x="124" y="561" width="40" height="30" as="geometry" />
        </mxCell>
        <mxCell id="53VEk4ZsRvkRP79_Khu0-13" value="1" style="text;html=1;align=center;verticalAlign=middle;resizable=0;points=[];autosize=1;strokeColor=none;fillColor=none;fontSize=16;" vertex="1" parent="1">
          <mxGeometry x="325" y="645" width="30" height="30" as="geometry" />
        </mxCell>
        <mxCell id="53VEk4ZsRvkRP79_Khu0-14" value="1" style="text;html=1;align=center;verticalAlign=middle;resizable=0;points=[];autosize=1;strokeColor=none;fillColor=none;fontSize=16;" vertex="1" parent="1">
          <mxGeometry x="346.5" y="620" width="30" height="30" as="geometry" />
        </mxCell>
      </root>
    </mxGraphModel>
  </diagram>
  <diagram id="uyrQhY5hbVPrnwfqvW_s" name="PÃ¡gina-2">
    <mxGraphModel dx="1120" dy="426" grid="1" gridSize="10" guides="1" tooltips="1" connect="1" arrows="1" fold="1" page="1" pageScale="1" pageWidth="827" pageHeight="1169" math="0" shadow="0">
      <root>
        <mxCell id="0" />
        <mxCell id="1" parent="0" />
        <mxCell id="yZv8nyslktA9JksQBVyK-1" style="edgeStyle=none;curved=1;rounded=0;orthogonalLoop=1;jettySize=auto;html=1;entryX=0;entryY=1;entryDx=0;entryDy=0;fontSize=12;startSize=8;endSize=8;" edge="1" parent="1" source="yZv8nyslktA9JksQBVyK-3" target="yZv8nyslktA9JksQBVyK-70">
          <mxGeometry relative="1" as="geometry" />
        </mxCell>
        <mxCell id="yZv8nyslktA9JksQBVyK-2" style="edgeStyle=none;curved=1;rounded=0;orthogonalLoop=1;jettySize=auto;html=1;entryX=0;entryY=1;entryDx=0;entryDy=0;fontSize=12;startSize=8;endSize=8;" edge="1" parent="1" source="yZv8nyslktA9JksQBVyK-3" target="yZv8nyslktA9JksQBVyK-71">
          <mxGeometry relative="1" as="geometry" />
        </mxCell>
        <mxCell id="yZv8nyslktA9JksQBVyK-3" value="Mesero" style="ellipse;whiteSpace=wrap;html=1;align=center;fontStyle=4;" vertex="1" parent="1">
          <mxGeometry x="640" y="1399" width="80" height="80" as="geometry" />
        </mxCell>
        <mxCell id="yZv8nyslktA9JksQBVyK-4" style="edgeStyle=none;curved=1;rounded=0;orthogonalLoop=1;jettySize=auto;html=1;entryX=0;entryY=0.5;entryDx=0;entryDy=0;fontSize=12;startSize=8;endSize=8;" edge="1" parent="1" source="yZv8nyslktA9JksQBVyK-11" target="yZv8nyslktA9JksQBVyK-63">
          <mxGeometry relative="1" as="geometry" />
        </mxCell>
        <mxCell id="yZv8nyslktA9JksQBVyK-5" style="edgeStyle=none;curved=1;rounded=0;orthogonalLoop=1;jettySize=auto;html=1;entryX=0;entryY=0.5;entryDx=0;entryDy=0;fontSize=12;startSize=8;endSize=8;" edge="1" parent="1" source="yZv8nyslktA9JksQBVyK-11" target="yZv8nyslktA9JksQBVyK-64">
          <mxGeometry relative="1" as="geometry" />
        </mxCell>
        <mxCell id="yZv8nyslktA9JksQBVyK-6" style="edgeStyle=none;curved=1;rounded=0;orthogonalLoop=1;jettySize=auto;html=1;entryX=0;entryY=0.5;entryDx=0;entryDy=0;fontSize=12;startSize=8;endSize=8;" edge="1" parent="1" source="yZv8nyslktA9JksQBVyK-11" target="yZv8nyslktA9JksQBVyK-65">
          <mxGeometry relative="1" as="geometry" />
        </mxCell>
        <mxCell id="yZv8nyslktA9JksQBVyK-7" style="edgeStyle=none;curved=1;rounded=0;orthogonalLoop=1;jettySize=auto;html=1;entryX=0;entryY=0.5;entryDx=0;entryDy=0;fontSize=12;startSize=8;endSize=8;" edge="1" parent="1" source="yZv8nyslktA9JksQBVyK-11" target="yZv8nyslktA9JksQBVyK-66">
          <mxGeometry relative="1" as="geometry" />
        </mxCell>
        <mxCell id="yZv8nyslktA9JksQBVyK-8" style="edgeStyle=none;curved=1;rounded=0;orthogonalLoop=1;jettySize=auto;html=1;entryX=0;entryY=0.5;entryDx=0;entryDy=0;fontSize=12;startSize=8;endSize=8;" edge="1" parent="1" source="yZv8nyslktA9JksQBVyK-11" target="yZv8nyslktA9JksQBVyK-67">
          <mxGeometry relative="1" as="geometry" />
        </mxCell>
        <mxCell id="yZv8nyslktA9JksQBVyK-9" style="edgeStyle=none;curved=1;rounded=0;orthogonalLoop=1;jettySize=auto;html=1;entryX=0;entryY=0;entryDx=0;entryDy=0;fontSize=12;startSize=8;endSize=8;" edge="1" parent="1" source="yZv8nyslktA9JksQBVyK-11" target="yZv8nyslktA9JksQBVyK-68">
          <mxGeometry relative="1" as="geometry" />
        </mxCell>
        <mxCell id="yZv8nyslktA9JksQBVyK-10" style="edgeStyle=none;curved=1;rounded=0;orthogonalLoop=1;jettySize=auto;html=1;entryX=0;entryY=0.5;entryDx=0;entryDy=0;fontSize=12;startSize=8;endSize=8;" edge="1" parent="1" source="yZv8nyslktA9JksQBVyK-11" target="yZv8nyslktA9JksQBVyK-69">
          <mxGeometry relative="1" as="geometry" />
        </mxCell>
        <mxCell id="yZv8nyslktA9JksQBVyK-11" value="Orden" style="ellipse;whiteSpace=wrap;html=1;align=center;" vertex="1" parent="1">
          <mxGeometry x="640" y="1020" width="80" height="80" as="geometry" />
        </mxCell>
        <mxCell id="yZv8nyslktA9JksQBVyK-12" style="edgeStyle=none;curved=1;rounded=0;orthogonalLoop=1;jettySize=auto;html=1;entryX=1;entryY=1;entryDx=0;entryDy=0;fontSize=12;startSize=8;endSize=8;" edge="1" parent="1" source="yZv8nyslktA9JksQBVyK-14" target="yZv8nyslktA9JksQBVyK-94">
          <mxGeometry relative="1" as="geometry" />
        </mxCell>
        <mxCell id="yZv8nyslktA9JksQBVyK-13" style="edgeStyle=none;curved=1;rounded=0;orthogonalLoop=1;jettySize=auto;html=1;entryX=1;entryY=0.5;entryDx=0;entryDy=0;fontSize=12;startSize=8;endSize=8;" edge="1" parent="1" source="yZv8nyslktA9JksQBVyK-14" target="yZv8nyslktA9JksQBVyK-95">
          <mxGeometry relative="1" as="geometry" />
        </mxCell>
        <mxCell id="yZv8nyslktA9JksQBVyK-14" value="Tipo_Cliente" style="ellipse;whiteSpace=wrap;html=1;align=center;fontStyle=4;" vertex="1" parent="1">
          <mxGeometry x="334" y="1020" width="80" height="80" as="geometry" />
        </mxCell>
        <mxCell id="yZv8nyslktA9JksQBVyK-15" style="edgeStyle=none;curved=1;rounded=0;orthogonalLoop=1;jettySize=auto;html=1;entryX=0;entryY=0.5;entryDx=0;entryDy=0;fontSize=12;startSize=8;endSize=8;" edge="1" parent="1" source="yZv8nyslktA9JksQBVyK-17" target="yZv8nyslktA9JksQBVyK-61">
          <mxGeometry relative="1" as="geometry" />
        </mxCell>
        <mxCell id="yZv8nyslktA9JksQBVyK-16" style="edgeStyle=none;curved=1;rounded=0;orthogonalLoop=1;jettySize=auto;html=1;entryX=0;entryY=0.5;entryDx=0;entryDy=0;fontSize=12;startSize=8;endSize=8;" edge="1" parent="1" source="yZv8nyslktA9JksQBVyK-17" target="yZv8nyslktA9JksQBVyK-62">
          <mxGeometry relative="1" as="geometry" />
        </mxCell>
        <mxCell id="yZv8nyslktA9JksQBVyK-17" value="Pedido" style="ellipse;whiteSpace=wrap;html=1;align=center;" vertex="1" parent="1">
          <mxGeometry x="820" y="752.5" width="80" height="90" as="geometry" />
        </mxCell>
        <mxCell id="yZv8nyslktA9JksQBVyK-18" value="Ord_ID" style="text;html=1;align=center;verticalAlign=middle;whiteSpace=wrap;rounded=0;fontSize=16;" vertex="1" parent="1">
          <mxGeometry x="845.5" y="970" width="60" height="30" as="geometry" />
        </mxCell>
        <mxCell id="yZv8nyslktA9JksQBVyK-19" value="Ord_Fecha" style="text;html=1;align=center;verticalAlign=middle;whiteSpace=wrap;rounded=0;fontSize=16;" vertex="1" parent="1">
          <mxGeometry x="860" y="1010" width="60" height="30" as="geometry" />
        </mxCell>
        <mxCell id="yZv8nyslktA9JksQBVyK-20" value="&lt;blockquote style=&quot;margin: 0 0 0 40px; border: none; padding: 0px;&quot;&gt;Mes_ID&lt;/blockquote&gt;" style="text;html=1;align=center;verticalAlign=middle;whiteSpace=wrap;rounded=0;fontSize=16;" vertex="1" parent="1">
          <mxGeometry x="808" y="1170" width="105" height="30" as="geometry" />
        </mxCell>
        <mxCell id="yZv8nyslktA9JksQBVyK-21" value="Mes_ID" style="text;html=1;align=center;verticalAlign=middle;whiteSpace=wrap;rounded=0;fontSize=16;" vertex="1" parent="1">
          <mxGeometry x="801" y="1389" width="60" height="30" as="geometry" />
        </mxCell>
        <mxCell id="yZv8nyslktA9JksQBVyK-22" value="Mes_Nombre" style="text;html=1;align=center;verticalAlign=middle;whiteSpace=wrap;rounded=0;fontSize=16;" vertex="1" parent="1">
          <mxGeometry x="822" y="1459" width="60" height="30" as="geometry" />
        </mxCell>
        <mxCell id="yZv8nyslktA9JksQBVyK-23" value="TiC_ID" style="text;html=1;align=center;verticalAlign=middle;whiteSpace=wrap;rounded=0;fontSize=16;" vertex="1" parent="1">
          <mxGeometry x="202.5" y="1015" width="60" height="30" as="geometry" />
        </mxCell>
        <mxCell id="yZv8nyslktA9JksQBVyK-24" value="Mesa_ID" style="text;html=1;align=center;verticalAlign=middle;whiteSpace=wrap;rounded=0;fontSize=16;" vertex="1" parent="1">
          <mxGeometry x="852" y="1130" width="60" height="30" as="geometry" />
        </mxCell>
        <mxCell id="yZv8nyslktA9JksQBVyK-25" value="TiC_Tipo" style="text;html=1;align=center;verticalAlign=middle;whiteSpace=wrap;rounded=0;fontSize=16;" vertex="1" parent="1">
          <mxGeometry x="200.5" y="1065" width="60" height="30" as="geometry" />
        </mxCell>
        <mxCell id="yZv8nyslktA9JksQBVyK-26" value="TiC_ID" style="text;html=1;align=center;verticalAlign=middle;whiteSpace=wrap;rounded=0;fontSize=16;" vertex="1" parent="1">
          <mxGeometry x="848" y="1220" width="60" height="30" as="geometry" />
        </mxCell>
        <mxCell id="yZv8nyslktA9JksQBVyK-27" value="Ord_Propina" style="text;html=1;align=center;verticalAlign=middle;whiteSpace=wrap;rounded=0;fontSize=16;" vertex="1" parent="1">
          <mxGeometry x="863" y="1090" width="60" height="30" as="geometry" />
        </mxCell>
        <mxCell id="yZv8nyslktA9JksQBVyK-28" value="Ord_Precio" style="text;html=1;align=center;verticalAlign=middle;whiteSpace=wrap;rounded=0;fontSize=16;" vertex="1" parent="1">
          <mxGeometry x="861" y="1050" width="60" height="30" as="geometry" />
        </mxCell>
        <mxCell id="yZv8nyslktA9JksQBVyK-29" value="Ord_ID" style="text;html=1;align=center;verticalAlign=middle;whiteSpace=wrap;rounded=0;fontSize=16;" vertex="1" parent="1">
          <mxGeometry x="1005" y="790" width="60" height="30" as="geometry" />
        </mxCell>
        <mxCell id="yZv8nyslktA9JksQBVyK-30" style="edgeStyle=none;curved=1;rounded=0;orthogonalLoop=1;jettySize=auto;html=1;entryX=0;entryY=0.5;entryDx=0;entryDy=0;fontSize=12;startSize=8;endSize=8;" edge="1" parent="1" source="yZv8nyslktA9JksQBVyK-35" target="yZv8nyslktA9JksQBVyK-56">
          <mxGeometry relative="1" as="geometry" />
        </mxCell>
        <mxCell id="yZv8nyslktA9JksQBVyK-31" style="edgeStyle=none;curved=1;rounded=0;orthogonalLoop=1;jettySize=auto;html=1;entryX=0;entryY=0.5;entryDx=0;entryDy=0;fontSize=12;startSize=8;endSize=8;" edge="1" parent="1" source="yZv8nyslktA9JksQBVyK-35" target="yZv8nyslktA9JksQBVyK-57">
          <mxGeometry relative="1" as="geometry" />
        </mxCell>
        <mxCell id="yZv8nyslktA9JksQBVyK-32" style="edgeStyle=none;curved=1;rounded=0;orthogonalLoop=1;jettySize=auto;html=1;entryX=0;entryY=0.5;entryDx=0;entryDy=0;fontSize=12;startSize=8;endSize=8;" edge="1" parent="1" source="yZv8nyslktA9JksQBVyK-35" target="yZv8nyslktA9JksQBVyK-58">
          <mxGeometry relative="1" as="geometry" />
        </mxCell>
        <mxCell id="yZv8nyslktA9JksQBVyK-33" style="edgeStyle=none;curved=1;rounded=0;orthogonalLoop=1;jettySize=auto;html=1;entryX=0;entryY=0.5;entryDx=0;entryDy=0;fontSize=12;startSize=8;endSize=8;" edge="1" parent="1" source="yZv8nyslktA9JksQBVyK-35" target="yZv8nyslktA9JksQBVyK-59">
          <mxGeometry relative="1" as="geometry" />
        </mxCell>
        <mxCell id="yZv8nyslktA9JksQBVyK-34" style="edgeStyle=none;curved=1;rounded=0;orthogonalLoop=1;jettySize=auto;html=1;entryX=0;entryY=0.5;entryDx=0;entryDy=0;fontSize=12;startSize=8;endSize=8;" edge="1" parent="1" source="yZv8nyslktA9JksQBVyK-35" target="yZv8nyslktA9JksQBVyK-60">
          <mxGeometry relative="1" as="geometry" />
        </mxCell>
        <mxCell id="yZv8nyslktA9JksQBVyK-35" value="Producto" style="ellipse;whiteSpace=wrap;html=1;aspect=fixed;" vertex="1" parent="1">
          <mxGeometry x="640" y="535" width="80" height="80" as="geometry" />
        </mxCell>
        <mxCell id="yZv8nyslktA9JksQBVyK-36" value="Prod_ID" style="text;html=1;align=center;verticalAlign=middle;whiteSpace=wrap;rounded=0;fontSize=16;" vertex="1" parent="1">
          <mxGeometry x="887" y="450" width="60" height="30" as="geometry" />
        </mxCell>
        <mxCell id="yZv8nyslktA9JksQBVyK-37" value="Prod_Nombre" style="text;html=1;align=center;verticalAlign=middle;whiteSpace=wrap;rounded=0;fontSize=16;" vertex="1" parent="1">
          <mxGeometry x="906" y="500" width="60" height="30" as="geometry" />
        </mxCell>
        <mxCell id="yZv8nyslktA9JksQBVyK-38" value="TiP_ID" style="text;html=1;align=center;verticalAlign=middle;whiteSpace=wrap;rounded=0;fontSize=16;" vertex="1" parent="1">
          <mxGeometry x="880" y="681" width="60" height="30" as="geometry" />
        </mxCell>
        <mxCell id="yZv8nyslktA9JksQBVyK-39" value="Prod_Costo" style="text;html=1;align=center;verticalAlign=middle;whiteSpace=wrap;rounded=0;fontSize=16;" vertex="1" parent="1">
          <mxGeometry x="898" y="550" width="60" height="30" as="geometry" />
        </mxCell>
        <mxCell id="yZv8nyslktA9JksQBVyK-40" value="CaP_ID" style="text;html=1;align=center;verticalAlign=middle;whiteSpace=wrap;rounded=0;fontSize=16;" vertex="1" parent="1">
          <mxGeometry x="882" y="625" width="60" height="30" as="geometry" />
        </mxCell>
        <mxCell id="yZv8nyslktA9JksQBVyK-41" style="edgeStyle=none;curved=1;rounded=0;orthogonalLoop=1;jettySize=auto;html=1;entryX=1;entryY=1;entryDx=0;entryDy=0;fontSize=12;startSize=8;endSize=8;" edge="1" parent="1" source="yZv8nyslktA9JksQBVyK-43" target="yZv8nyslktA9JksQBVyK-52">
          <mxGeometry relative="1" as="geometry" />
        </mxCell>
        <mxCell id="yZv8nyslktA9JksQBVyK-42" style="edgeStyle=none;curved=1;rounded=0;orthogonalLoop=1;jettySize=auto;html=1;entryX=1;entryY=0.5;entryDx=0;entryDy=0;fontSize=12;startSize=8;endSize=8;" edge="1" parent="1" source="yZv8nyslktA9JksQBVyK-43" target="yZv8nyslktA9JksQBVyK-53">
          <mxGeometry relative="1" as="geometry" />
        </mxCell>
        <mxCell id="yZv8nyslktA9JksQBVyK-43" value="Tipo_Producto" style="ellipse;whiteSpace=wrap;html=1;aspect=fixed;" vertex="1" parent="1">
          <mxGeometry x="308" y="533.5" width="80" height="80" as="geometry" />
        </mxCell>
        <mxCell id="yZv8nyslktA9JksQBVyK-44" value="TiP_ID" style="text;html=1;align=center;verticalAlign=middle;whiteSpace=wrap;rounded=0;fontSize=16;" vertex="1" parent="1">
          <mxGeometry x="180" y="531" width="60" height="30" as="geometry" />
        </mxCell>
        <mxCell id="yZv8nyslktA9JksQBVyK-45" value="TiP_Nombre" style="text;html=1;align=center;verticalAlign=middle;whiteSpace=wrap;rounded=0;fontSize=16;" vertex="1" parent="1">
          <mxGeometry x="160" y="586" width="60" height="30" as="geometry" />
        </mxCell>
        <mxCell id="yZv8nyslktA9JksQBVyK-46" style="edgeStyle=none;curved=1;rounded=0;orthogonalLoop=1;jettySize=auto;html=1;fontSize=12;startSize=8;endSize=8;entryX=0;entryY=0.5;entryDx=0;entryDy=0;" edge="1" parent="1" source="yZv8nyslktA9JksQBVyK-48" target="yZv8nyslktA9JksQBVyK-54">
          <mxGeometry relative="1" as="geometry">
            <mxPoint x="779" y="219.9999999999999" as="targetPoint" />
          </mxGeometry>
        </mxCell>
        <mxCell id="yZv8nyslktA9JksQBVyK-47" style="edgeStyle=none;curved=1;rounded=0;orthogonalLoop=1;jettySize=auto;html=1;entryX=0;entryY=0.5;entryDx=0;entryDy=0;fontSize=12;startSize=8;endSize=8;" edge="1" parent="1" source="yZv8nyslktA9JksQBVyK-48" target="yZv8nyslktA9JksQBVyK-55">
          <mxGeometry relative="1" as="geometry" />
        </mxCell>
        <mxCell id="yZv8nyslktA9JksQBVyK-48" value="Categoria_Producto" style="ellipse;whiteSpace=wrap;html=1;aspect=fixed;" vertex="1" parent="1">
          <mxGeometry x="635" y="220" width="90" height="90" as="geometry" />
        </mxCell>
        <mxCell id="yZv8nyslktA9JksQBVyK-49" value="CaP_ID" style="text;html=1;align=center;verticalAlign=middle;whiteSpace=wrap;rounded=0;fontSize=16;" vertex="1" parent="1">
          <mxGeometry x="809" y="200" width="60" height="30" as="geometry" />
        </mxCell>
        <mxCell id="yZv8nyslktA9JksQBVyK-50" value="CaP_Nombre" style="text;html=1;align=center;verticalAlign=middle;whiteSpace=wrap;rounded=0;fontSize=16;" vertex="1" parent="1">
          <mxGeometry x="820" y="260" width="60" height="30" as="geometry" />
        </mxCell>
        <mxCell id="yZv8nyslktA9JksQBVyK-51" value="Pro_ID" style="text;html=1;align=center;verticalAlign=middle;whiteSpace=wrap;rounded=0;fontSize=16;" vertex="1" parent="1">
          <mxGeometry x="1005" y="845" width="60" height="30" as="geometry" />
        </mxCell>
        <mxCell id="yZv8nyslktA9JksQBVyK-52" value="" style="ellipse;whiteSpace=wrap;html=1;aspect=fixed;" vertex="1" parent="1">
          <mxGeometry x="234" y="536" width="20" height="20" as="geometry" />
        </mxCell>
        <mxCell id="yZv8nyslktA9JksQBVyK-53" value="" style="ellipse;whiteSpace=wrap;html=1;aspect=fixed;" vertex="1" parent="1">
          <mxGeometry x="234" y="591" width="20" height="20" as="geometry" />
        </mxCell>
        <mxCell id="yZv8nyslktA9JksQBVyK-54" value="" style="ellipse;whiteSpace=wrap;html=1;aspect=fixed;" vertex="1" parent="1">
          <mxGeometry x="789" y="205" width="20" height="20" as="geometry" />
        </mxCell>
        <mxCell id="yZv8nyslktA9JksQBVyK-55" value="" style="ellipse;whiteSpace=wrap;html=1;aspect=fixed;" vertex="1" parent="1">
          <mxGeometry x="779" y="265" width="20" height="20" as="geometry" />
        </mxCell>
        <mxCell id="yZv8nyslktA9JksQBVyK-56" value="" style="ellipse;whiteSpace=wrap;html=1;aspect=fixed;" vertex="1" parent="1">
          <mxGeometry x="860" y="455" width="20" height="20" as="geometry" />
        </mxCell>
        <mxCell id="yZv8nyslktA9JksQBVyK-57" value="" style="ellipse;whiteSpace=wrap;html=1;aspect=fixed;" vertex="1" parent="1">
          <mxGeometry x="860" y="500" width="20" height="20" as="geometry" />
        </mxCell>
        <mxCell id="yZv8nyslktA9JksQBVyK-58" value="" style="ellipse;whiteSpace=wrap;html=1;aspect=fixed;" vertex="1" parent="1">
          <mxGeometry x="860" y="555" width="20" height="20" as="geometry" />
        </mxCell>
        <mxCell id="yZv8nyslktA9JksQBVyK-59" value="" style="ellipse;whiteSpace=wrap;html=1;aspect=fixed;" vertex="1" parent="1">
          <mxGeometry x="858" y="630" width="20" height="20" as="geometry" />
        </mxCell>
        <mxCell id="yZv8nyslktA9JksQBVyK-60" value="" style="ellipse;whiteSpace=wrap;html=1;aspect=fixed;" vertex="1" parent="1">
          <mxGeometry x="858" y="685" width="20" height="20" as="geometry" />
        </mxCell>
        <mxCell id="yZv8nyslktA9JksQBVyK-61" value="" style="ellipse;whiteSpace=wrap;html=1;aspect=fixed;" vertex="1" parent="1">
          <mxGeometry x="980" y="795" width="20" height="20" as="geometry" />
        </mxCell>
        <mxCell id="yZv8nyslktA9JksQBVyK-62" value="" style="ellipse;whiteSpace=wrap;html=1;aspect=fixed;" vertex="1" parent="1">
          <mxGeometry x="980" y="850" width="20" height="20" as="geometry" />
        </mxCell>
        <mxCell id="yZv8nyslktA9JksQBVyK-63" value="" style="ellipse;whiteSpace=wrap;html=1;aspect=fixed;" vertex="1" parent="1">
          <mxGeometry x="825.5" y="975" width="20" height="20" as="geometry" />
        </mxCell>
        <mxCell id="yZv8nyslktA9JksQBVyK-64" value="" style="ellipse;whiteSpace=wrap;html=1;aspect=fixed;" vertex="1" parent="1">
          <mxGeometry x="825.5" y="1015" width="20" height="20" as="geometry" />
        </mxCell>
        <mxCell id="yZv8nyslktA9JksQBVyK-65" value="" style="ellipse;whiteSpace=wrap;html=1;aspect=fixed;" vertex="1" parent="1">
          <mxGeometry x="825.5" y="1055" width="20" height="20" as="geometry" />
        </mxCell>
        <mxCell id="yZv8nyslktA9JksQBVyK-66" value="" style="ellipse;whiteSpace=wrap;html=1;aspect=fixed;" vertex="1" parent="1">
          <mxGeometry x="825.5" y="1095" width="20" height="20" as="geometry" />
        </mxCell>
        <mxCell id="yZv8nyslktA9JksQBVyK-67" value="" style="ellipse;whiteSpace=wrap;html=1;aspect=fixed;" vertex="1" parent="1">
          <mxGeometry x="825.5" y="1135" width="20" height="20" as="geometry" />
        </mxCell>
        <mxCell id="yZv8nyslktA9JksQBVyK-68" value="" style="ellipse;whiteSpace=wrap;html=1;aspect=fixed;" vertex="1" parent="1">
          <mxGeometry x="825.5" y="1175" width="20" height="20" as="geometry" />
        </mxCell>
        <mxCell id="yZv8nyslktA9JksQBVyK-69" value="" style="ellipse;whiteSpace=wrap;html=1;aspect=fixed;" vertex="1" parent="1">
          <mxGeometry x="826" y="1225" width="20" height="20" as="geometry" />
        </mxCell>
        <mxCell id="yZv8nyslktA9JksQBVyK-70" value="" style="ellipse;whiteSpace=wrap;html=1;aspect=fixed;" vertex="1" parent="1">
          <mxGeometry x="782" y="1394" width="20" height="20" as="geometry" />
        </mxCell>
        <mxCell id="yZv8nyslktA9JksQBVyK-71" value="" style="ellipse;whiteSpace=wrap;html=1;aspect=fixed;" vertex="1" parent="1">
          <mxGeometry x="781" y="1459" width="20" height="20" as="geometry" />
        </mxCell>
        <mxCell id="yZv8nyslktA9JksQBVyK-72" style="edgeStyle=none;curved=1;rounded=0;orthogonalLoop=1;jettySize=auto;html=1;entryX=0;entryY=0.5;entryDx=0;entryDy=0;fontSize=12;startSize=8;endSize=8;" edge="1" parent="1" source="yZv8nyslktA9JksQBVyK-73" target="yZv8nyslktA9JksQBVyK-17">
          <mxGeometry relative="1" as="geometry" />
        </mxCell>
        <mxCell id="yZv8nyslktA9JksQBVyK-73" value="N:N" style="rhombus;whiteSpace=wrap;html=1;" vertex="1" parent="1">
          <mxGeometry x="640" y="755" width="80" height="80" as="geometry" />
        </mxCell>
        <mxCell id="yZv8nyslktA9JksQBVyK-74" value="" style="endArrow=none;dashed=1;html=1;rounded=0;fontSize=12;startSize=8;endSize=8;curved=1;entryX=0.5;entryY=1;entryDx=0;entryDy=0;exitX=0.5;exitY=0;exitDx=0;exitDy=0;" edge="1" parent="1" source="yZv8nyslktA9JksQBVyK-11" target="yZv8nyslktA9JksQBVyK-73">
          <mxGeometry width="50" height="50" relative="1" as="geometry">
            <mxPoint x="660" y="1030" as="sourcePoint" />
            <mxPoint x="710" y="980" as="targetPoint" />
          </mxGeometry>
        </mxCell>
        <mxCell id="yZv8nyslktA9JksQBVyK-75" value="" style="endArrow=none;dashed=1;html=1;rounded=0;fontSize=12;startSize=8;endSize=8;curved=1;entryX=0.5;entryY=1;entryDx=0;entryDy=0;exitX=0.5;exitY=0;exitDx=0;exitDy=0;" edge="1" parent="1" source="yZv8nyslktA9JksQBVyK-73" target="yZv8nyslktA9JksQBVyK-35">
          <mxGeometry width="50" height="50" relative="1" as="geometry">
            <mxPoint x="630" y="690" as="sourcePoint" />
            <mxPoint x="680" y="640" as="targetPoint" />
          </mxGeometry>
        </mxCell>
        <mxCell id="yZv8nyslktA9JksQBVyK-76" value="N" style="text;html=1;align=center;verticalAlign=middle;resizable=0;points=[];autosize=1;strokeColor=none;fillColor=none;fontSize=16;" vertex="1" parent="1">
          <mxGeometry x="639" y="620" width="40" height="30" as="geometry" />
        </mxCell>
        <mxCell id="yZv8nyslktA9JksQBVyK-77" value="N" style="text;html=1;align=center;verticalAlign=middle;resizable=0;points=[];autosize=1;strokeColor=none;fillColor=none;fontSize=16;" vertex="1" parent="1">
          <mxGeometry x="680" y="620" width="40" height="30" as="geometry" />
        </mxCell>
        <mxCell id="yZv8nyslktA9JksQBVyK-78" value="N" style="text;html=1;align=center;verticalAlign=middle;resizable=0;points=[];autosize=1;strokeColor=none;fillColor=none;fontSize=16;" vertex="1" parent="1">
          <mxGeometry x="644" y="990" width="40" height="30" as="geometry" />
        </mxCell>
        <mxCell id="yZv8nyslktA9JksQBVyK-79" value="N" style="text;html=1;align=center;verticalAlign=middle;resizable=0;points=[];autosize=1;strokeColor=none;fillColor=none;fontSize=16;" vertex="1" parent="1">
          <mxGeometry x="679" y="990" width="40" height="30" as="geometry" />
        </mxCell>
        <mxCell id="yZv8nyslktA9JksQBVyK-80" value="1:N" style="rhombus;whiteSpace=wrap;html=1;" vertex="1" parent="1">
          <mxGeometry x="640" y="380" width="80" height="80" as="geometry" />
        </mxCell>
        <mxCell id="yZv8nyslktA9JksQBVyK-81" value="" style="endArrow=none;dashed=1;html=1;rounded=0;fontSize=12;startSize=8;endSize=8;curved=1;exitX=0.5;exitY=0;exitDx=0;exitDy=0;entryX=0.5;entryY=1;entryDx=0;entryDy=0;" edge="1" parent="1" source="yZv8nyslktA9JksQBVyK-35" target="yZv8nyslktA9JksQBVyK-80">
          <mxGeometry width="50" height="50" relative="1" as="geometry">
            <mxPoint x="680" y="530" as="sourcePoint" />
            <mxPoint x="740" y="380" as="targetPoint" />
          </mxGeometry>
        </mxCell>
        <mxCell id="yZv8nyslktA9JksQBVyK-82" value="" style="endArrow=none;dashed=1;html=1;rounded=0;fontSize=12;startSize=8;endSize=8;curved=1;entryX=0.5;entryY=0;entryDx=0;entryDy=0;exitX=0.5;exitY=1;exitDx=0;exitDy=0;" edge="1" parent="1" source="yZv8nyslktA9JksQBVyK-48" target="yZv8nyslktA9JksQBVyK-80">
          <mxGeometry width="50" height="50" relative="1" as="geometry">
            <mxPoint x="920" y="430" as="sourcePoint" />
            <mxPoint x="970" y="380" as="targetPoint" />
          </mxGeometry>
        </mxCell>
        <mxCell id="yZv8nyslktA9JksQBVyK-83" value="1" style="text;html=1;align=center;verticalAlign=middle;resizable=0;points=[];autosize=1;strokeColor=none;fillColor=none;fontSize=16;" vertex="1" parent="1">
          <mxGeometry x="689" y="511" width="30" height="30" as="geometry" />
        </mxCell>
        <mxCell id="yZv8nyslktA9JksQBVyK-84" value="1" style="text;html=1;align=center;verticalAlign=middle;resizable=0;points=[];autosize=1;strokeColor=none;fillColor=none;fontSize=16;" vertex="1" parent="1">
          <mxGeometry x="649" y="505" width="30" height="30" as="geometry" />
        </mxCell>
        <mxCell id="yZv8nyslktA9JksQBVyK-85" value="1" style="text;html=1;align=center;verticalAlign=middle;resizable=0;points=[];autosize=1;strokeColor=none;fillColor=none;fontSize=16;" vertex="1" parent="1">
          <mxGeometry x="643" y="310" width="30" height="30" as="geometry" />
        </mxCell>
        <mxCell id="yZv8nyslktA9JksQBVyK-86" value="N" style="text;html=1;align=center;verticalAlign=middle;resizable=0;points=[];autosize=1;strokeColor=none;fillColor=none;fontSize=16;" vertex="1" parent="1">
          <mxGeometry x="679" y="310" width="40" height="30" as="geometry" />
        </mxCell>
        <mxCell id="yZv8nyslktA9JksQBVyK-87" value="1:N" style="rhombus;whiteSpace=wrap;html=1;" vertex="1" parent="1">
          <mxGeometry x="480" y="535" width="80" height="80" as="geometry" />
        </mxCell>
        <mxCell id="yZv8nyslktA9JksQBVyK-88" value="" style="endArrow=none;dashed=1;html=1;rounded=0;fontSize=12;startSize=8;endSize=8;curved=1;exitX=1;exitY=0.5;exitDx=0;exitDy=0;entryX=0;entryY=0.5;entryDx=0;entryDy=0;" edge="1" parent="1" source="yZv8nyslktA9JksQBVyK-87" target="yZv8nyslktA9JksQBVyK-35">
          <mxGeometry width="50" height="50" relative="1" as="geometry">
            <mxPoint x="350" y="430" as="sourcePoint" />
            <mxPoint x="400" y="380" as="targetPoint" />
          </mxGeometry>
        </mxCell>
        <mxCell id="yZv8nyslktA9JksQBVyK-89" value="" style="endArrow=none;dashed=1;html=1;rounded=0;fontSize=12;startSize=8;endSize=8;curved=1;exitX=1;exitY=0.5;exitDx=0;exitDy=0;entryX=0;entryY=0.5;entryDx=0;entryDy=0;" edge="1" parent="1" source="yZv8nyslktA9JksQBVyK-43" target="yZv8nyslktA9JksQBVyK-87">
          <mxGeometry width="50" height="50" relative="1" as="geometry">
            <mxPoint x="420" y="590" as="sourcePoint" />
            <mxPoint x="470" y="540" as="targetPoint" />
          </mxGeometry>
        </mxCell>
        <mxCell id="yZv8nyslktA9JksQBVyK-90" value="1" style="text;html=1;align=center;verticalAlign=middle;resizable=0;points=[];autosize=1;strokeColor=none;fillColor=none;fontSize=16;" vertex="1" parent="1">
          <mxGeometry x="609" y="531" width="30" height="30" as="geometry" />
        </mxCell>
        <mxCell id="yZv8nyslktA9JksQBVyK-91" value="1" style="text;html=1;align=center;verticalAlign=middle;resizable=0;points=[];autosize=1;strokeColor=none;fillColor=none;fontSize=16;" vertex="1" parent="1">
          <mxGeometry x="609" y="581" width="30" height="30" as="geometry" />
        </mxCell>
        <mxCell id="yZv8nyslktA9JksQBVyK-92" value="1" style="text;html=1;align=center;verticalAlign=middle;resizable=0;points=[];autosize=1;strokeColor=none;fillColor=none;fontSize=16;" vertex="1" parent="1">
          <mxGeometry x="388" y="544.5" width="30" height="30" as="geometry" />
        </mxCell>
        <mxCell id="yZv8nyslktA9JksQBVyK-93" value="N" style="text;html=1;align=center;verticalAlign=middle;resizable=0;points=[];autosize=1;strokeColor=none;fillColor=none;fontSize=16;" vertex="1" parent="1">
          <mxGeometry x="384" y="579.5" width="40" height="30" as="geometry" />
        </mxCell>
        <mxCell id="yZv8nyslktA9JksQBVyK-94" value="" style="ellipse;whiteSpace=wrap;html=1;aspect=fixed;" vertex="1" parent="1">
          <mxGeometry x="258.5" y="1020" width="20" height="20" as="geometry" />
        </mxCell>
        <mxCell id="yZv8nyslktA9JksQBVyK-95" value="" style="ellipse;whiteSpace=wrap;html=1;aspect=fixed;" vertex="1" parent="1">
          <mxGeometry x="265.5" y="1070" width="20" height="20" as="geometry" />
        </mxCell>
        <mxCell id="yZv8nyslktA9JksQBVyK-96" value="1:N" style="rhombus;whiteSpace=wrap;html=1;" vertex="1" parent="1">
          <mxGeometry x="480" y="1020" width="80" height="80" as="geometry" />
        </mxCell>
        <mxCell id="yZv8nyslktA9JksQBVyK-97" value="" style="endArrow=none;dashed=1;html=1;rounded=0;fontSize=12;startSize=8;endSize=8;curved=1;exitX=1;exitY=0.5;exitDx=0;exitDy=0;entryX=0;entryY=0.5;entryDx=0;entryDy=0;" edge="1" parent="1" source="yZv8nyslktA9JksQBVyK-96" target="yZv8nyslktA9JksQBVyK-11">
          <mxGeometry width="50" height="50" relative="1" as="geometry">
            <mxPoint x="580" y="1150" as="sourcePoint" />
            <mxPoint x="630" y="1100" as="targetPoint" />
          </mxGeometry>
        </mxCell>
        <mxCell id="yZv8nyslktA9JksQBVyK-98" value="" style="endArrow=none;dashed=1;html=1;rounded=0;fontSize=12;startSize=8;endSize=8;curved=1;exitX=0;exitY=0.5;exitDx=0;exitDy=0;entryX=1;entryY=0.5;entryDx=0;entryDy=0;" edge="1" parent="1" source="yZv8nyslktA9JksQBVyK-96" target="yZv8nyslktA9JksQBVyK-14">
          <mxGeometry width="50" height="50" relative="1" as="geometry">
            <mxPoint x="570" y="1060" as="sourcePoint" />
            <mxPoint x="650" y="1070" as="targetPoint" />
          </mxGeometry>
        </mxCell>
        <mxCell id="yZv8nyslktA9JksQBVyK-99" value="1" style="text;html=1;align=center;verticalAlign=middle;resizable=0;points=[];autosize=1;strokeColor=none;fillColor=none;fontSize=16;" vertex="1" parent="1">
          <mxGeometry x="409" y="1031" width="30" height="30" as="geometry" />
        </mxCell>
        <mxCell id="yZv8nyslktA9JksQBVyK-100" value="N" style="text;html=1;align=center;verticalAlign=middle;resizable=0;points=[];autosize=1;strokeColor=none;fillColor=none;fontSize=16;" vertex="1" parent="1">
          <mxGeometry x="404" y="1061" width="40" height="30" as="geometry" />
        </mxCell>
        <mxCell id="yZv8nyslktA9JksQBVyK-101" value="1" style="text;html=1;align=center;verticalAlign=middle;resizable=0;points=[];autosize=1;strokeColor=none;fillColor=none;fontSize=16;" vertex="1" parent="1">
          <mxGeometry x="619" y="1061" width="30" height="30" as="geometry" />
        </mxCell>
        <mxCell id="yZv8nyslktA9JksQBVyK-102" value="1" style="text;html=1;align=center;verticalAlign=middle;resizable=0;points=[];autosize=1;strokeColor=none;fillColor=none;fontSize=16;" vertex="1" parent="1">
          <mxGeometry x="619" y="1031" width="30" height="30" as="geometry" />
        </mxCell>
        <mxCell id="yZv8nyslktA9JksQBVyK-103" value="1:N" style="rhombus;whiteSpace=wrap;html=1;" vertex="1" parent="1">
          <mxGeometry x="640" y="1220" width="80" height="80" as="geometry" />
        </mxCell>
        <mxCell id="yZv8nyslktA9JksQBVyK-104" value="" style="endArrow=none;dashed=1;html=1;rounded=0;fontSize=12;startSize=8;endSize=8;curved=1;exitX=0.5;exitY=0;exitDx=0;exitDy=0;entryX=0.5;entryY=1;entryDx=0;entryDy=0;" edge="1" parent="1" source="yZv8nyslktA9JksQBVyK-103" target="yZv8nyslktA9JksQBVyK-11">
          <mxGeometry width="50" height="50" relative="1" as="geometry">
            <mxPoint x="630" y="1190" as="sourcePoint" />
            <mxPoint x="680" y="1140" as="targetPoint" />
          </mxGeometry>
        </mxCell>
        <mxCell id="yZv8nyslktA9JksQBVyK-105" value="" style="endArrow=none;dashed=1;html=1;rounded=0;fontSize=12;startSize=8;endSize=8;curved=1;entryX=0.5;entryY=1;entryDx=0;entryDy=0;exitX=0.5;exitY=0;exitDx=0;exitDy=0;" edge="1" parent="1" source="yZv8nyslktA9JksQBVyK-3" target="yZv8nyslktA9JksQBVyK-103">
          <mxGeometry width="50" height="50" relative="1" as="geometry">
            <mxPoint x="630" y="1550" as="sourcePoint" />
            <mxPoint x="680" y="1500" as="targetPoint" />
          </mxGeometry>
        </mxCell>
        <mxCell id="yZv8nyslktA9JksQBVyK-106" value="1" style="text;html=1;align=center;verticalAlign=middle;resizable=0;points=[];autosize=1;strokeColor=none;fillColor=none;fontSize=16;" vertex="1" parent="1">
          <mxGeometry x="659" y="1101" width="30" height="30" as="geometry" />
        </mxCell>
        <mxCell id="yZv8nyslktA9JksQBVyK-107" value="1" style="text;html=1;align=center;verticalAlign=middle;resizable=0;points=[];autosize=1;strokeColor=none;fillColor=none;fontSize=16;" vertex="1" parent="1">
          <mxGeometry x="679" y="1101" width="30" height="30" as="geometry" />
        </mxCell>
        <mxCell id="yZv8nyslktA9JksQBVyK-108" value="1" style="text;html=1;align=center;verticalAlign=middle;resizable=0;points=[];autosize=1;strokeColor=none;fillColor=none;fontSize=16;" vertex="1" parent="1">
          <mxGeometry x="656.5" y="1370" width="30" height="30" as="geometry" />
        </mxCell>
        <mxCell id="yZv8nyslktA9JksQBVyK-109" value="N" style="text;html=1;align=center;verticalAlign=middle;resizable=0;points=[];autosize=1;strokeColor=none;fillColor=none;fontSize=16;" vertex="1" parent="1">
          <mxGeometry x="671.5" y="1370" width="40" height="30" as="geometry" />
        </mxCell>
        <mxCell id="yZv8nyslktA9JksQBVyK-110" style="edgeStyle=none;curved=1;rounded=0;orthogonalLoop=1;jettySize=auto;html=1;entryX=0;entryY=0.5;entryDx=0;entryDy=0;fontSize=12;startSize=8;endSize=8;exitX=1;exitY=0.5;exitDx=0;exitDy=0;" edge="1" parent="1" source="yZv8nyslktA9JksQBVyK-35" target="yZv8nyslktA9JksQBVyK-112">
          <mxGeometry relative="1" as="geometry">
            <mxPoint x="730" y="583" as="sourcePoint" />
          </mxGeometry>
        </mxCell>
        <mxCell id="yZv8nyslktA9JksQBVyK-111" value="Prod_Precio" style="text;html=1;align=center;verticalAlign=middle;whiteSpace=wrap;rounded=0;fontSize=16;" vertex="1" parent="1">
          <mxGeometry x="896" y="591" width="60" height="30" as="geometry" />
        </mxCell>
        <mxCell id="yZv8nyslktA9JksQBVyK-112" value="" style="ellipse;whiteSpace=wrap;html=1;aspect=fixed;" vertex="1" parent="1">
          <mxGeometry x="858" y="596" width="20" height="20" as="geometry" />
        </mxCell>
        <mxCell id="yZv8nyslktA9JksQBVyK-113" style="edgeStyle=none;curved=1;rounded=0;orthogonalLoop=1;jettySize=auto;html=1;entryX=0;entryY=0.5;entryDx=0;entryDy=0;fontSize=12;startSize=8;endSize=8;exitX=0.95;exitY=0.339;exitDx=0;exitDy=0;exitPerimeter=0;" edge="1" parent="1" source="yZv8nyslktA9JksQBVyK-17" target="yZv8nyslktA9JksQBVyK-115">
          <mxGeometry relative="1" as="geometry">
            <mxPoint x="898" y="750" as="sourcePoint" />
          </mxGeometry>
        </mxCell>
        <mxCell id="yZv8nyslktA9JksQBVyK-114" value="Ped_ID" style="text;html=1;align=center;verticalAlign=middle;whiteSpace=wrap;rounded=0;fontSize=16;" vertex="1" parent="1">
          <mxGeometry x="1003" y="739" width="60" height="30" as="geometry" />
        </mxCell>
        <mxCell id="yZv8nyslktA9JksQBVyK-115" value="" style="ellipse;whiteSpace=wrap;html=1;aspect=fixed;" vertex="1" parent="1">
          <mxGeometry x="978" y="745" width="20" height="20" as="geometry" />
        </mxCell>
        <mxCell id="yZv8nyslktA9JksQBVyK-116" style="edgeStyle=none;curved=1;rounded=0;orthogonalLoop=1;jettySize=auto;html=1;entryX=1;entryY=1;entryDx=0;entryDy=0;fontSize=12;startSize=8;endSize=8;" edge="1" parent="1" source="yZv8nyslktA9JksQBVyK-118" target="yZv8nyslktA9JksQBVyK-121">
          <mxGeometry relative="1" as="geometry" />
        </mxCell>
        <mxCell id="yZv8nyslktA9JksQBVyK-117" style="edgeStyle=none;curved=1;rounded=0;orthogonalLoop=1;jettySize=auto;html=1;entryX=1;entryY=0.5;entryDx=0;entryDy=0;fontSize=12;startSize=8;endSize=8;" edge="1" parent="1" source="yZv8nyslktA9JksQBVyK-118" target="yZv8nyslktA9JksQBVyK-122">
          <mxGeometry relative="1" as="geometry" />
        </mxCell>
        <mxCell id="yZv8nyslktA9JksQBVyK-118" value="Mesa" style="ellipse;whiteSpace=wrap;html=1;align=center;fontStyle=4;" vertex="1" parent="1">
          <mxGeometry x="334" y="880" width="80" height="80" as="geometry" />
        </mxCell>
        <mxCell id="yZv8nyslktA9JksQBVyK-119" value="Mesa_ID" style="text;html=1;align=center;verticalAlign=middle;whiteSpace=wrap;rounded=0;fontSize=16;" vertex="1" parent="1">
          <mxGeometry x="194.5" y="875" width="60" height="30" as="geometry" />
        </mxCell>
        <mxCell id="yZv8nyslktA9JksQBVyK-120" value="Mesa_Nombre" style="text;html=1;align=center;verticalAlign=middle;whiteSpace=wrap;rounded=0;fontSize=16;" vertex="1" parent="1">
          <mxGeometry x="179.5" y="925" width="60" height="30" as="geometry" />
        </mxCell>
        <mxCell id="yZv8nyslktA9JksQBVyK-121" value="" style="ellipse;whiteSpace=wrap;html=1;aspect=fixed;" vertex="1" parent="1">
          <mxGeometry x="258.5" y="880" width="20" height="20" as="geometry" />
        </mxCell>
        <mxCell id="yZv8nyslktA9JksQBVyK-122" value="" style="ellipse;whiteSpace=wrap;html=1;aspect=fixed;" vertex="1" parent="1">
          <mxGeometry x="265.5" y="930" width="20" height="20" as="geometry" />
        </mxCell>
        <mxCell id="yZv8nyslktA9JksQBVyK-123" value="1:N" style="rhombus;whiteSpace=wrap;html=1;" vertex="1" parent="1">
          <mxGeometry x="480" y="880" width="80" height="80" as="geometry" />
        </mxCell>
        <mxCell id="yZv8nyslktA9JksQBVyK-124" value="" style="endArrow=none;dashed=1;html=1;rounded=0;fontSize=12;startSize=8;endSize=8;curved=1;exitX=1;exitY=0.5;exitDx=0;exitDy=0;" edge="1" parent="1" source="yZv8nyslktA9JksQBVyK-123" target="yZv8nyslktA9JksQBVyK-11">
          <mxGeometry width="50" height="50" relative="1" as="geometry">
            <mxPoint x="580" y="1010" as="sourcePoint" />
            <mxPoint x="640" y="920" as="targetPoint" />
          </mxGeometry>
        </mxCell>
        <mxCell id="yZv8nyslktA9JksQBVyK-125" value="" style="endArrow=none;dashed=1;html=1;rounded=0;fontSize=12;startSize=8;endSize=8;curved=1;exitX=0;exitY=0.5;exitDx=0;exitDy=0;entryX=1;entryY=0.5;entryDx=0;entryDy=0;" edge="1" parent="1" source="yZv8nyslktA9JksQBVyK-123" target="yZv8nyslktA9JksQBVyK-118">
          <mxGeometry width="50" height="50" relative="1" as="geometry">
            <mxPoint x="570" y="920" as="sourcePoint" />
            <mxPoint x="650" y="930" as="targetPoint" />
          </mxGeometry>
        </mxCell>
        <mxCell id="yZv8nyslktA9JksQBVyK-126" value="1" style="text;html=1;align=center;verticalAlign=middle;resizable=0;points=[];autosize=1;strokeColor=none;fillColor=none;fontSize=16;" vertex="1" parent="1">
          <mxGeometry x="409" y="891" width="30" height="30" as="geometry" />
        </mxCell>
        <mxCell id="yZv8nyslktA9JksQBVyK-127" value="N" style="text;html=1;align=center;verticalAlign=middle;resizable=0;points=[];autosize=1;strokeColor=none;fillColor=none;fontSize=16;" vertex="1" parent="1">
          <mxGeometry x="404" y="921" width="40" height="30" as="geometry" />
        </mxCell>
        <mxCell id="yZv8nyslktA9JksQBVyK-128" value="1" style="text;html=1;align=center;verticalAlign=middle;resizable=0;points=[];autosize=1;strokeColor=none;fillColor=none;fontSize=16;" vertex="1" parent="1">
          <mxGeometry x="605" y="1005" width="30" height="30" as="geometry" />
        </mxCell>
        <mxCell id="yZv8nyslktA9JksQBVyK-129" value="1" style="text;html=1;align=center;verticalAlign=middle;resizable=0;points=[];autosize=1;strokeColor=none;fillColor=none;fontSize=16;" vertex="1" parent="1">
          <mxGeometry x="626.5" y="980" width="30" height="30" as="geometry" />
        </mxCell>
      </root>
    </mxGraphModel>
  </diagram>
</mxfile>
